%TF.GenerationSoftware,KiCad,Pcbnew,5.99.0-unknown-34fb55dc9c~93~ubuntu20.04.1*%
%TF.CreationDate,2020-12-20T23:19:57+03:00*%
%TF.ProjectId,uhf_detector,7568665f-6465-4746-9563-746f722e6b69,rev?*%
%TF.SameCoordinates,Original*%
%TF.FileFunction,Copper,L1,Top*%
%TF.FilePolarity,Positive*%
%FSLAX46Y46*%
G04 Gerber Fmt 4.6, Leading zero omitted, Abs format (unit mm)*
G04 Created by KiCad (PCBNEW 5.99.0-unknown-34fb55dc9c~93~ubuntu20.04.1) date 2020-12-20 23:19:57*
%MOMM*%
%LPD*%
G01*
G04 APERTURE LIST*
G04 Aperture macros list*
%AMRoundRect*
0 Rectangle with rounded corners*
0 $1 Rounding radius*
0 $2 $3 $4 $5 $6 $7 $8 $9 X,Y pos of 4 corners*
0 Add a 4 corners polygon primitive as box body*
4,1,4,$2,$3,$4,$5,$6,$7,$8,$9,$2,$3,0*
0 Add four circle primitives for the rounded corners*
1,1,$1+$1,$2,$3,0*
1,1,$1+$1,$4,$5,0*
1,1,$1+$1,$6,$7,0*
1,1,$1+$1,$8,$9,0*
0 Add four rect primitives between the rounded corners*
20,1,$1+$1,$2,$3,$4,$5,0*
20,1,$1+$1,$4,$5,$6,$7,0*
20,1,$1+$1,$6,$7,$8,$9,0*
20,1,$1+$1,$8,$9,$2,$3,0*%
G04 Aperture macros list end*
%TA.AperFunction,SMDPad,CuDef*%
%ADD10RoundRect,0.250000X-0.450000X0.262500X-0.450000X-0.262500X0.450000X-0.262500X0.450000X0.262500X0*%
%TD*%
%TA.AperFunction,ComponentPad*%
%ADD11O,1.700000X1.700000*%
%TD*%
%TA.AperFunction,ComponentPad*%
%ADD12R,1.700000X1.700000*%
%TD*%
%TA.AperFunction,ComponentPad*%
%ADD13C,2.000000*%
%TD*%
%TA.AperFunction,ComponentPad*%
%ADD14R,2.000000X2.000000*%
%TD*%
%TA.AperFunction,SMDPad,CuDef*%
%ADD15RoundRect,0.150000X0.725000X0.150000X-0.725000X0.150000X-0.725000X-0.150000X0.725000X-0.150000X0*%
%TD*%
%TA.AperFunction,SMDPad,CuDef*%
%ADD16RoundRect,0.250000X0.262500X0.450000X-0.262500X0.450000X-0.262500X-0.450000X0.262500X-0.450000X0*%
%TD*%
%TA.AperFunction,SMDPad,CuDef*%
%ADD17RoundRect,0.250000X0.450000X-0.262500X0.450000X0.262500X-0.450000X0.262500X-0.450000X-0.262500X0*%
%TD*%
%TA.AperFunction,ComponentPad*%
%ADD18C,2.250000*%
%TD*%
%TA.AperFunction,ComponentPad*%
%ADD19C,2.050000*%
%TD*%
%TA.AperFunction,ComponentPad*%
%ADD20C,1.800000*%
%TD*%
%TA.AperFunction,ComponentPad*%
%ADD21R,1.800000X1.800000*%
%TD*%
%TA.AperFunction,ComponentPad*%
%ADD22O,2.400000X2.400000*%
%TD*%
%TA.AperFunction,ComponentPad*%
%ADD23R,2.400000X2.400000*%
%TD*%
%TA.AperFunction,SMDPad,CuDef*%
%ADD24RoundRect,0.250000X0.250000X0.475000X-0.250000X0.475000X-0.250000X-0.475000X0.250000X-0.475000X0*%
%TD*%
%TA.AperFunction,SMDPad,CuDef*%
%ADD25RoundRect,0.250000X-0.250000X-0.475000X0.250000X-0.475000X0.250000X0.475000X-0.250000X0.475000X0*%
%TD*%
%TA.AperFunction,SMDPad,CuDef*%
%ADD26RoundRect,0.250000X-0.475000X0.250000X-0.475000X-0.250000X0.475000X-0.250000X0.475000X0.250000X0*%
%TD*%
%TA.AperFunction,ViaPad*%
%ADD27C,0.800000*%
%TD*%
%TA.AperFunction,Conductor*%
%ADD28C,0.500000*%
%TD*%
%TA.AperFunction,Conductor*%
%ADD29C,1.000000*%
%TD*%
%TA.AperFunction,Conductor*%
%ADD30C,0.250000*%
%TD*%
G04 APERTURE END LIST*
D10*
%TO.P,R5,2*%
%TO.N,/CH1*%
X32000000Y-45912500D03*
%TO.P,R5,1*%
%TO.N,Net-(J1-Pad2)*%
X32000000Y-44087500D03*
%TD*%
D11*
%TO.P,J6,2,Pin_2*%
%TO.N,+9V*%
X41540000Y-63000000D03*
D12*
%TO.P,J6,1,Pin_1*%
%TO.N,GNDA*%
X39000000Y-63000000D03*
%TD*%
D13*
%TO.P,C2,2*%
%TO.N,GNDA*%
X52000000Y-61000000D03*
D14*
%TO.P,C2,1*%
%TO.N,+9V*%
X47000000Y-61000000D03*
%TD*%
D11*
%TO.P,J5,2,Pin_2*%
%TO.N,Net-(C1-Pad1)*%
X39000000Y-39590000D03*
D12*
%TO.P,J5,1,Pin_1*%
%TO.N,GNDA*%
X39000000Y-37050000D03*
%TD*%
D15*
%TO.P,U1,8,V+*%
%TO.N,+9V*%
X29725000Y-52405000D03*
%TO.P,U1,7*%
%TO.N,/CH2*%
X29725000Y-51135000D03*
%TO.P,U1,6,-*%
X29725000Y-49865000D03*
%TO.P,U1,5,+*%
%TO.N,/CH1*%
X29725000Y-48595000D03*
%TO.P,U1,4,V-*%
%TO.N,GNDA*%
X34875000Y-48595000D03*
%TO.P,U1,3,+*%
%TO.N,Net-(C3-Pad1)*%
X34875000Y-49865000D03*
%TO.P,U1,2,-*%
%TO.N,Net-(J1-Pad2)*%
X34875000Y-51135000D03*
%TO.P,U1,1*%
%TO.N,/CH1*%
X34875000Y-52405000D03*
%TD*%
D16*
%TO.P,R4,2*%
%TO.N,Net-(J2-Pad1)*%
X24087500Y-60000000D03*
%TO.P,R4,1*%
%TO.N,GNDA*%
X25912500Y-60000000D03*
%TD*%
D10*
%TO.P,R3,2*%
%TO.N,Net-(J2-Pad2)*%
X24000000Y-49912500D03*
%TO.P,R3,1*%
%TO.N,/CH1*%
X24000000Y-48087500D03*
%TD*%
%TO.P,R2,2*%
%TO.N,Net-(D3-Pad2)*%
X35000000Y-56912500D03*
%TO.P,R2,1*%
%TO.N,/CH1*%
X35000000Y-55087500D03*
%TD*%
D17*
%TO.P,R1,2*%
%TO.N,Net-(J1-Pad2)*%
X30000000Y-44087500D03*
%TO.P,R1,1*%
%TO.N,GNDA*%
X30000000Y-45912500D03*
%TD*%
D18*
%TO.P,J4,2,Ext*%
%TO.N,GNDA*%
X42920000Y-41900000D03*
X42920000Y-36820000D03*
X48000000Y-36820000D03*
X48000000Y-41900000D03*
D19*
%TO.P,J4,1,In*%
%TO.N,Net-(C1-Pad1)*%
X45460000Y-39360000D03*
%TD*%
D11*
%TO.P,J3,3,Pin_3*%
%TO.N,/CH1*%
X27920000Y-37000000D03*
%TO.P,J3,2,Pin_2*%
%TO.N,GNDA*%
X30460000Y-37000000D03*
D12*
%TO.P,J3,1,Pin_1*%
%TO.N,/CH2*%
X33000000Y-37000000D03*
%TD*%
D11*
%TO.P,J2,2,Pin_2*%
%TO.N,Net-(J2-Pad2)*%
X24000000Y-53460000D03*
D12*
%TO.P,J2,1,Pin_1*%
%TO.N,Net-(J2-Pad1)*%
X24000000Y-56000000D03*
%TD*%
D11*
%TO.P,J1,2,Pin_2*%
%TO.N,Net-(J1-Pad2)*%
X24000000Y-44540000D03*
D12*
%TO.P,J1,1,Pin_1*%
%TO.N,/CH1*%
X24000000Y-42000000D03*
%TD*%
D20*
%TO.P,D3,2,A*%
%TO.N,Net-(D3-Pad2)*%
X34540000Y-63000000D03*
D21*
%TO.P,D3,1,K*%
%TO.N,GNDA*%
X32000000Y-63000000D03*
%TD*%
D22*
%TO.P,D2,2,A*%
%TO.N,Net-(C1-Pad2)*%
X53640000Y-52000000D03*
D23*
%TO.P,D2,1,K*%
%TO.N,Net-(C3-Pad1)*%
X38400000Y-52000000D03*
%TD*%
D22*
%TO.P,D1,2,A*%
%TO.N,GNDA*%
X38310000Y-47300000D03*
D23*
%TO.P,D1,1,K*%
%TO.N,Net-(C1-Pad2)*%
X53550000Y-47300000D03*
%TD*%
D24*
%TO.P,C6,2*%
%TO.N,GNDA*%
X32050000Y-41000000D03*
%TO.P,C6,1*%
%TO.N,/CH2*%
X33950000Y-41000000D03*
%TD*%
D25*
%TO.P,C5,2*%
%TO.N,GNDA*%
X29950000Y-41000000D03*
%TO.P,C5,1*%
%TO.N,/CH1*%
X28050000Y-41000000D03*
%TD*%
D26*
%TO.P,C4,2*%
%TO.N,GNDA*%
X29600000Y-57500000D03*
%TO.P,C4,1*%
%TO.N,+9V*%
X29600000Y-55600000D03*
%TD*%
%TO.P,C3,2*%
%TO.N,GNDA*%
X38000000Y-56950000D03*
%TO.P,C3,1*%
%TO.N,Net-(C3-Pad1)*%
X38000000Y-55050000D03*
%TD*%
D25*
%TO.P,C1,2*%
%TO.N,Net-(C1-Pad2)*%
X53050000Y-39000000D03*
%TO.P,C1,1*%
%TO.N,Net-(C1-Pad1)*%
X51150000Y-39000000D03*
%TD*%
D27*
%TO.N,GNDA*%
X38000000Y-57000000D03*
X26000000Y-60000000D03*
X29600000Y-57500000D03*
X32000000Y-41000000D03*
X30000000Y-41000000D03*
X30000000Y-46000000D03*
%TO.N,Net-(J1-Pad2)*%
X32000000Y-54000000D03*
X30000000Y-44000000D03*
%TO.N,/CH1*%
X35000000Y-55000000D03*
X28000000Y-47000000D03*
%TO.N,Net-(D3-Pad2)*%
X35000000Y-57000000D03*
%TD*%
D28*
%TO.N,GNDA*%
X26000000Y-60000000D02*
X28000000Y-60000000D01*
D29*
%TO.N,Net-(J1-Pad2)*%
X32000000Y-44087500D02*
X30000000Y-44087500D01*
D28*
%TO.N,/CH1*%
X29725000Y-48595000D02*
X32000000Y-46320000D01*
D30*
X32000000Y-46320000D02*
X32000000Y-45912500D01*
D28*
%TO.N,+9V*%
X29600000Y-55600000D02*
X32600000Y-55600000D01*
X33000000Y-56000000D02*
X33000000Y-59000000D01*
X32600000Y-55600000D02*
X33000000Y-56000000D01*
D30*
%TO.N,Net-(C1-Pad1)*%
X39000000Y-39590000D02*
X39230000Y-39360000D01*
D29*
X39230000Y-39360000D02*
X45460000Y-39360000D01*
X51150000Y-39000000D02*
X45820000Y-39000000D01*
D30*
X45820000Y-39000000D02*
X45460000Y-39360000D01*
%TO.N,Net-(C1-Pad2)*%
X53550000Y-47300000D02*
X53640000Y-47390000D01*
D29*
X53640000Y-47390000D02*
X53640000Y-52000000D01*
D30*
X53550000Y-47300000D02*
X54000000Y-46850000D01*
D29*
X54000000Y-46850000D02*
X54000000Y-39950000D01*
X54000000Y-39950000D02*
X53050000Y-39000000D01*
D28*
%TO.N,+9V*%
X47000000Y-61000000D02*
X47000000Y-59000000D01*
X47000000Y-59000000D02*
X45000000Y-59000000D01*
X41540000Y-63000000D02*
X47000000Y-63000000D01*
X47000000Y-63000000D02*
X47000000Y-61000000D01*
%TO.N,Net-(J1-Pad2)*%
X32000000Y-52000000D02*
X32000000Y-54000000D01*
X34875000Y-51135000D02*
X32865000Y-51135000D01*
X32865000Y-51135000D02*
X32000000Y-52000000D01*
%TO.N,/CH1*%
X24000000Y-42000000D02*
X26000000Y-42000000D01*
X26000000Y-42000000D02*
X27000000Y-41000000D01*
X27000000Y-41000000D02*
X28050000Y-41000000D01*
D30*
X27920000Y-37000000D02*
X28050000Y-37130000D01*
D28*
X28050000Y-37130000D02*
X28050000Y-41000000D01*
%TO.N,/CH2*%
X33000000Y-37000000D02*
X33950000Y-37950000D01*
X33950000Y-37950000D02*
X33950000Y-41000000D01*
%TO.N,/CH1*%
X35000000Y-55000000D02*
X35000000Y-52530000D01*
D30*
%TO.N,Net-(C3-Pad1)*%
X38400000Y-52000000D02*
X38400000Y-54650000D01*
X38400000Y-54650000D02*
X38000000Y-55050000D01*
%TO.N,/CH1*%
X35000000Y-55087500D02*
X35000000Y-55000000D01*
X35000000Y-52530000D02*
X34875000Y-52405000D01*
%TO.N,GNDA*%
X32000000Y-63000000D02*
X31000000Y-63000000D01*
D28*
X31000000Y-63000000D02*
X28000000Y-60000000D01*
%TO.N,+9V*%
X33000000Y-59000000D02*
X45000000Y-59000000D01*
X29600000Y-55600000D02*
X29600000Y-52530000D01*
D30*
X29600000Y-52530000D02*
X29725000Y-52405000D01*
D28*
%TO.N,GNDA*%
X25912500Y-60000000D02*
X26000000Y-60000000D01*
X28000000Y-60000000D02*
X29600000Y-58400000D01*
X29600000Y-58400000D02*
X29600000Y-57500000D01*
%TO.N,Net-(J2-Pad1)*%
X24000000Y-56000000D02*
X24000000Y-59912500D01*
D30*
X24000000Y-59912500D02*
X24087500Y-60000000D01*
D28*
%TO.N,Net-(J2-Pad2)*%
X24000000Y-53460000D02*
X24000000Y-49912500D01*
%TO.N,/CH1*%
X26912500Y-48087500D02*
X28000000Y-47000000D01*
X24000000Y-48087500D02*
X26912500Y-48087500D01*
D30*
X28000000Y-47000000D02*
X28050000Y-46950000D01*
X28050000Y-46950000D02*
X28050000Y-46920000D01*
D28*
X28050000Y-41000000D02*
X28050000Y-46920000D01*
X28050000Y-46920000D02*
X29725000Y-48595000D01*
%TO.N,/CH2*%
X33950000Y-41000000D02*
X33950000Y-46515000D01*
X33950000Y-46515000D02*
X30600000Y-49865000D01*
X30600000Y-49865000D02*
X29725000Y-49865000D01*
X29725000Y-49865000D02*
X29725000Y-51135000D01*
%TO.N,Net-(C3-Pad1)*%
X34875000Y-49865000D02*
X36265000Y-49865000D01*
D29*
X36265000Y-49865000D02*
X38400000Y-52000000D01*
D28*
%TO.N,GNDA*%
X34875000Y-48595000D02*
X37015000Y-48595000D01*
D29*
X37015000Y-48595000D02*
X38310000Y-47300000D01*
%TD*%
%TA.AperFunction,Conductor*%
%TO.N,GNDA*%
G36*
X55434121Y-34528002D02*
G01*
X55480614Y-34581658D01*
X55492000Y-34634000D01*
X55492000Y-45946573D01*
X55471998Y-46014694D01*
X55418342Y-46061187D01*
X55348068Y-46071291D01*
X55283488Y-46041797D01*
X55245104Y-45982071D01*
X55219635Y-45895330D01*
X55219634Y-45895328D01*
X55217096Y-45886684D01*
X55171393Y-45815569D01*
X55142949Y-45771309D01*
X55142947Y-45771306D01*
X55138077Y-45763729D01*
X55131267Y-45757828D01*
X55051987Y-45689131D01*
X55013604Y-45629405D01*
X55008500Y-45593907D01*
X55008500Y-40012948D01*
X55009237Y-39999340D01*
X55012779Y-39966738D01*
X55012779Y-39966734D01*
X55013444Y-39960613D01*
X55012907Y-39954474D01*
X55012907Y-39954469D01*
X55008934Y-39909057D01*
X55008604Y-39904221D01*
X55008500Y-39902083D01*
X55008500Y-39899006D01*
X55004424Y-39857435D01*
X55004307Y-39856173D01*
X54996742Y-39769700D01*
X54996742Y-39769697D01*
X54996205Y-39763565D01*
X54994718Y-39758447D01*
X54994198Y-39753143D01*
X54967306Y-39664073D01*
X54966964Y-39662918D01*
X54942740Y-39579539D01*
X54941020Y-39573618D01*
X54938567Y-39568886D01*
X54937027Y-39563785D01*
X54893382Y-39481701D01*
X54892769Y-39480533D01*
X54885767Y-39467023D01*
X54849992Y-39398007D01*
X54846667Y-39393842D01*
X54844166Y-39389138D01*
X54785362Y-39317037D01*
X54784534Y-39316010D01*
X54781772Y-39312550D01*
X54754019Y-39277785D01*
X54751525Y-39275291D01*
X54751044Y-39274753D01*
X54747329Y-39270404D01*
X54723045Y-39240628D01*
X54723042Y-39240625D01*
X54719150Y-39235853D01*
X54682831Y-39205808D01*
X54674050Y-39197817D01*
X54095405Y-38619172D01*
X54061379Y-38556860D01*
X54058500Y-38530077D01*
X54058500Y-38482114D01*
X54044671Y-38363500D01*
X54043870Y-38356629D01*
X54043870Y-38356628D01*
X54043022Y-38349357D01*
X54039248Y-38338958D01*
X53985184Y-38190015D01*
X53982687Y-38183136D01*
X53904130Y-38063316D01*
X53889743Y-38041372D01*
X53889742Y-38041371D01*
X53885731Y-38035253D01*
X53757355Y-37913642D01*
X53604445Y-37824825D01*
X53435204Y-37773567D01*
X53428764Y-37772992D01*
X53428763Y-37772992D01*
X53358815Y-37766749D01*
X53358809Y-37766749D01*
X53356022Y-37766500D01*
X52757114Y-37766500D01*
X52661894Y-37777602D01*
X52631629Y-37781130D01*
X52631628Y-37781130D01*
X52624357Y-37781978D01*
X52617479Y-37784474D01*
X52617477Y-37784475D01*
X52482052Y-37833632D01*
X52458136Y-37842313D01*
X52373591Y-37897743D01*
X52316429Y-37935220D01*
X52310253Y-37939269D01*
X52213531Y-38041372D01*
X52190801Y-38065366D01*
X52129432Y-38101064D01*
X52058505Y-38097917D01*
X52000539Y-38056923D01*
X51993956Y-38047799D01*
X51985731Y-38035253D01*
X51857355Y-37913642D01*
X51704445Y-37824825D01*
X51535204Y-37773567D01*
X51528764Y-37772992D01*
X51528763Y-37772992D01*
X51458815Y-37766749D01*
X51458809Y-37766749D01*
X51456022Y-37766500D01*
X50857114Y-37766500D01*
X50761894Y-37777602D01*
X50731629Y-37781130D01*
X50731628Y-37781130D01*
X50724357Y-37781978D01*
X50717479Y-37784474D01*
X50717477Y-37784475D01*
X50582052Y-37833632D01*
X50558136Y-37842313D01*
X50473591Y-37897743D01*
X50416429Y-37935220D01*
X50410253Y-37939269D01*
X50405222Y-37944580D01*
X50405217Y-37944584D01*
X50398048Y-37952152D01*
X50336679Y-37987851D01*
X50306575Y-37991500D01*
X49420231Y-37991500D01*
X49352110Y-37971498D01*
X49305617Y-37917842D01*
X49295513Y-37847568D01*
X49320748Y-37791792D01*
X49319048Y-37790557D01*
X49327754Y-37778575D01*
X49456883Y-37567856D01*
X49461364Y-37559062D01*
X49555937Y-37330743D01*
X49558986Y-37321358D01*
X49616679Y-37081053D01*
X49618222Y-37071306D01*
X49637612Y-36824930D01*
X49637612Y-36815070D01*
X49618222Y-36568694D01*
X49616679Y-36558947D01*
X49558986Y-36318642D01*
X49555937Y-36309257D01*
X49461364Y-36080938D01*
X49456883Y-36072144D01*
X49330626Y-35866112D01*
X49322566Y-35860848D01*
X49312354Y-35866856D01*
X48089095Y-37090115D01*
X48026783Y-37124141D01*
X47955968Y-37119076D01*
X47910905Y-37090115D01*
X46689101Y-35868311D01*
X46675569Y-35860921D01*
X46670292Y-35864614D01*
X46543117Y-36072144D01*
X46538636Y-36080938D01*
X46444063Y-36309257D01*
X46441014Y-36318642D01*
X46383321Y-36558947D01*
X46381778Y-36568694D01*
X46362388Y-36815070D01*
X46362388Y-36824930D01*
X46381778Y-37071306D01*
X46383321Y-37081053D01*
X46441014Y-37321358D01*
X46444063Y-37330743D01*
X46538636Y-37559062D01*
X46543117Y-37567856D01*
X46672246Y-37778575D01*
X46680952Y-37790557D01*
X46679226Y-37791811D01*
X46704610Y-37848450D01*
X46694010Y-37918650D01*
X46647139Y-37971976D01*
X46579769Y-37991500D01*
X46191355Y-37991500D01*
X46134263Y-37976098D01*
X46133704Y-37977264D01*
X46129136Y-37975076D01*
X46124764Y-37972531D01*
X45894382Y-37884095D01*
X45652825Y-37833632D01*
X45647775Y-37833403D01*
X45647770Y-37833402D01*
X45535369Y-37828298D01*
X45406307Y-37822437D01*
X45401287Y-37823018D01*
X45401283Y-37823018D01*
X45168084Y-37850000D01*
X45161170Y-37850800D01*
X45156299Y-37852178D01*
X45156296Y-37852179D01*
X45047164Y-37883061D01*
X44923722Y-37917992D01*
X44866695Y-37944584D01*
X44704652Y-38020145D01*
X44704648Y-38020147D01*
X44700070Y-38022282D01*
X44495970Y-38160989D01*
X44364063Y-38285728D01*
X44330943Y-38317048D01*
X44267705Y-38349320D01*
X44244370Y-38351500D01*
X43975480Y-38351500D01*
X43907359Y-38331498D01*
X43860866Y-38277842D01*
X43850762Y-38207568D01*
X43869986Y-38156601D01*
X43879152Y-38142566D01*
X43873144Y-38132354D01*
X42932812Y-37192022D01*
X42918868Y-37184408D01*
X42917035Y-37184539D01*
X42910420Y-37188790D01*
X41968311Y-38130899D01*
X41960921Y-38144432D01*
X41967098Y-38153258D01*
X41989767Y-38220539D01*
X41972463Y-38289394D01*
X41920680Y-38337964D01*
X41863865Y-38351500D01*
X40398091Y-38351500D01*
X40329970Y-38331498D01*
X40283477Y-38277842D01*
X40273373Y-38207568D01*
X40283477Y-38173158D01*
X40338477Y-38052725D01*
X40343502Y-38035612D01*
X40362361Y-37904446D01*
X40363000Y-37895503D01*
X40363000Y-37322115D01*
X40358525Y-37306876D01*
X40357135Y-37305671D01*
X40349452Y-37304000D01*
X37655115Y-37304000D01*
X37639876Y-37308475D01*
X37638671Y-37309865D01*
X37637000Y-37317548D01*
X37637000Y-37897743D01*
X37637161Y-37902250D01*
X37641740Y-37966269D01*
X37644126Y-37979491D01*
X37680819Y-38104458D01*
X37688233Y-38120692D01*
X37757426Y-38228360D01*
X37769112Y-38241847D01*
X37865840Y-38325662D01*
X37880848Y-38335307D01*
X37997275Y-38388477D01*
X38010969Y-38392498D01*
X38070695Y-38430882D01*
X38100188Y-38495463D01*
X38090083Y-38565737D01*
X38058049Y-38608560D01*
X38026530Y-38635910D01*
X38026524Y-38635917D01*
X38022492Y-38639415D01*
X38019109Y-38643541D01*
X38019105Y-38643545D01*
X37921315Y-38762809D01*
X37876304Y-38817705D01*
X37762245Y-39018077D01*
X37683578Y-39234802D01*
X37682629Y-39240051D01*
X37682628Y-39240054D01*
X37653836Y-39399275D01*
X37642551Y-39461683D01*
X37642359Y-39481702D01*
X37640614Y-39663527D01*
X37640338Y-39692233D01*
X37677002Y-39919861D01*
X37751494Y-40138056D01*
X37754044Y-40142743D01*
X37754045Y-40142745D01*
X37803424Y-40233500D01*
X37861685Y-40340580D01*
X38004424Y-40521644D01*
X38008389Y-40525220D01*
X38171659Y-40672489D01*
X38171665Y-40672494D01*
X38175629Y-40676069D01*
X38180142Y-40678928D01*
X38180144Y-40678929D01*
X38184219Y-40681510D01*
X38370406Y-40799439D01*
X38583184Y-40888228D01*
X38588387Y-40889425D01*
X38588392Y-40889426D01*
X38802678Y-40938701D01*
X38802683Y-40938702D01*
X38807881Y-40939897D01*
X38813209Y-40940200D01*
X38813212Y-40940200D01*
X38969293Y-40949063D01*
X39038071Y-40952968D01*
X39043378Y-40952368D01*
X39043380Y-40952368D01*
X39182113Y-40936684D01*
X39267173Y-40927068D01*
X39272288Y-40925587D01*
X39272292Y-40925586D01*
X39358900Y-40900506D01*
X39488635Y-40862937D01*
X39696125Y-40762409D01*
X39700463Y-40759309D01*
X39700468Y-40759306D01*
X39843210Y-40657300D01*
X39883711Y-40628357D01*
X40011488Y-40499461D01*
X40042277Y-40468403D01*
X40042278Y-40468402D01*
X40046030Y-40464617D01*
X40061113Y-40443117D01*
X40075829Y-40422139D01*
X40131325Y-40377859D01*
X40178979Y-40368500D01*
X41864520Y-40368500D01*
X41932641Y-40388502D01*
X41979134Y-40442158D01*
X41989238Y-40512432D01*
X41970014Y-40563399D01*
X41960848Y-40577434D01*
X41966856Y-40587646D01*
X42907188Y-41527978D01*
X42921132Y-41535592D01*
X42922965Y-41535461D01*
X42929580Y-41531210D01*
X43871689Y-40589101D01*
X43879079Y-40575568D01*
X43872902Y-40566742D01*
X43850233Y-40499461D01*
X43867537Y-40430606D01*
X43919320Y-40382036D01*
X43976135Y-40368500D01*
X44246944Y-40368500D01*
X44315065Y-40388502D01*
X44335412Y-40404781D01*
X44471071Y-40538559D01*
X44475196Y-40541491D01*
X44475199Y-40541493D01*
X44523149Y-40575569D01*
X44672222Y-40681510D01*
X44676758Y-40683742D01*
X44889099Y-40788227D01*
X44889104Y-40788229D01*
X44893640Y-40790461D01*
X44898483Y-40791942D01*
X44898484Y-40791942D01*
X45124782Y-40861128D01*
X45124784Y-40861128D01*
X45129630Y-40862610D01*
X45134651Y-40863298D01*
X45134652Y-40863298D01*
X45251875Y-40879356D01*
X45374119Y-40896101D01*
X45444319Y-40894385D01*
X45615756Y-40890196D01*
X45615760Y-40890196D01*
X45620817Y-40890072D01*
X45863378Y-40844678D01*
X46095561Y-40761087D01*
X46311393Y-40641449D01*
X46316870Y-40637139D01*
X46392741Y-40577434D01*
X47040848Y-40577434D01*
X47046856Y-40587646D01*
X47987188Y-41527978D01*
X48001132Y-41535592D01*
X48002965Y-41535461D01*
X48009580Y-41531210D01*
X48951689Y-40589101D01*
X48959079Y-40575569D01*
X48955386Y-40570292D01*
X48747856Y-40443117D01*
X48739062Y-40438636D01*
X48510743Y-40344063D01*
X48501358Y-40341014D01*
X48261053Y-40283321D01*
X48251306Y-40281778D01*
X48004930Y-40262388D01*
X47995070Y-40262388D01*
X47748694Y-40281778D01*
X47738947Y-40283321D01*
X47498642Y-40341014D01*
X47489257Y-40344063D01*
X47260938Y-40438636D01*
X47252144Y-40443117D01*
X47046112Y-40569374D01*
X47040848Y-40577434D01*
X46392741Y-40577434D01*
X46501344Y-40491972D01*
X46501345Y-40491971D01*
X46505320Y-40488843D01*
X46638453Y-40344063D01*
X46668931Y-40310919D01*
X46668933Y-40310916D01*
X46672355Y-40307195D01*
X46808198Y-40101178D01*
X46816436Y-40082848D01*
X46862604Y-40028914D01*
X46931362Y-40008500D01*
X50310251Y-40008500D01*
X50378372Y-40028502D01*
X50396902Y-40043025D01*
X50442645Y-40086358D01*
X50595555Y-40175175D01*
X50764796Y-40226433D01*
X50771236Y-40227008D01*
X50771237Y-40227008D01*
X50841185Y-40233251D01*
X50841191Y-40233251D01*
X50843978Y-40233500D01*
X51442886Y-40233500D01*
X51538106Y-40222398D01*
X51568371Y-40218870D01*
X51568372Y-40218870D01*
X51575643Y-40218022D01*
X51582521Y-40215526D01*
X51582523Y-40215525D01*
X51734985Y-40160184D01*
X51741864Y-40157687D01*
X51858337Y-40081324D01*
X51883628Y-40064743D01*
X51883629Y-40064742D01*
X51889747Y-40060731D01*
X52009199Y-39934634D01*
X52070568Y-39898936D01*
X52141495Y-39902083D01*
X52199461Y-39943077D01*
X52206039Y-39952194D01*
X52214269Y-39964747D01*
X52342645Y-40086358D01*
X52495555Y-40175175D01*
X52664796Y-40226433D01*
X52671236Y-40227008D01*
X52671237Y-40227008D01*
X52741185Y-40233251D01*
X52741191Y-40233251D01*
X52743978Y-40233500D01*
X52805076Y-40233500D01*
X52873197Y-40253502D01*
X52894171Y-40270405D01*
X52954596Y-40330830D01*
X52988622Y-40393142D01*
X52991501Y-40419925D01*
X52991500Y-45460500D01*
X52971498Y-45528621D01*
X52917842Y-45575114D01*
X52865500Y-45586500D01*
X52350000Y-45586500D01*
X52276921Y-45591727D01*
X52204931Y-45612865D01*
X52145330Y-45630365D01*
X52145328Y-45630366D01*
X52136684Y-45632904D01*
X52129105Y-45637775D01*
X52021309Y-45707051D01*
X52021306Y-45707053D01*
X52013729Y-45711923D01*
X52007828Y-45718733D01*
X51923918Y-45815569D01*
X51923916Y-45815572D01*
X51918016Y-45822381D01*
X51914272Y-45830579D01*
X51887729Y-45888701D01*
X51857300Y-45955330D01*
X51856018Y-45964245D01*
X51856018Y-45964246D01*
X51837139Y-46095552D01*
X51837138Y-46095559D01*
X51836500Y-46100000D01*
X51836500Y-48500000D01*
X51841727Y-48573079D01*
X51843631Y-48579562D01*
X51878539Y-48698449D01*
X51882904Y-48713316D01*
X51893732Y-48730165D01*
X51957051Y-48828691D01*
X51957053Y-48828694D01*
X51961923Y-48836271D01*
X51968733Y-48842172D01*
X52065569Y-48926082D01*
X52065572Y-48926084D01*
X52072381Y-48931984D01*
X52080579Y-48935728D01*
X52170753Y-48976909D01*
X52205330Y-48992700D01*
X52214245Y-48993982D01*
X52214246Y-48993982D01*
X52345552Y-49012861D01*
X52345559Y-49012862D01*
X52350000Y-49013500D01*
X52505500Y-49013500D01*
X52573621Y-49033502D01*
X52620114Y-49087158D01*
X52631500Y-49139500D01*
X52631501Y-50556834D01*
X52611499Y-50624955D01*
X52579829Y-50658575D01*
X52564494Y-50669778D01*
X52531033Y-50694222D01*
X52531028Y-50694226D01*
X52527171Y-50697044D01*
X52523782Y-50700415D01*
X52523780Y-50700417D01*
X52346282Y-50876988D01*
X52346278Y-50876993D01*
X52342889Y-50880364D01*
X52188457Y-51089449D01*
X52067427Y-51319487D01*
X51982587Y-51565186D01*
X51935887Y-51820890D01*
X51935749Y-51825672D01*
X51935749Y-51825674D01*
X51932774Y-51928944D01*
X51928402Y-52080717D01*
X51930522Y-52097860D01*
X51959346Y-52330929D01*
X51960305Y-52338686D01*
X51961603Y-52343289D01*
X51961604Y-52343293D01*
X51965585Y-52357409D01*
X52030862Y-52588861D01*
X52040503Y-52610065D01*
X52108690Y-52760033D01*
X52138449Y-52825485D01*
X52280589Y-53043113D01*
X52359996Y-53131769D01*
X52436998Y-53217739D01*
X52454013Y-53236736D01*
X52513711Y-53285860D01*
X52651023Y-53398851D01*
X52651028Y-53398854D01*
X52654729Y-53401900D01*
X52878118Y-53534802D01*
X52992835Y-53581267D01*
X53114599Y-53630587D01*
X53114603Y-53630588D01*
X53119039Y-53632385D01*
X53371950Y-53692404D01*
X53376721Y-53692792D01*
X53376727Y-53692793D01*
X53617805Y-53712401D01*
X53631028Y-53713477D01*
X53635802Y-53713139D01*
X53885529Y-53695457D01*
X53885532Y-53695456D01*
X53890313Y-53695118D01*
X53894989Y-53694060D01*
X54139177Y-53638806D01*
X54139181Y-53638805D01*
X54143838Y-53637751D01*
X54385768Y-53542696D01*
X54389900Y-53540296D01*
X54389904Y-53540294D01*
X54606400Y-53414543D01*
X54610537Y-53412140D01*
X54812971Y-53249088D01*
X54988413Y-53057291D01*
X55132825Y-52841164D01*
X55174383Y-52752246D01*
X55240854Y-52610021D01*
X55240855Y-52610018D01*
X55242883Y-52605679D01*
X55245096Y-52598134D01*
X55245701Y-52597193D01*
X55245921Y-52596611D01*
X55246045Y-52596658D01*
X55283466Y-52538400D01*
X55348041Y-52508892D01*
X55418317Y-52518981D01*
X55471983Y-52565462D01*
X55492000Y-52633606D01*
X55492000Y-66366000D01*
X55471998Y-66434121D01*
X55418342Y-66480614D01*
X55366000Y-66492000D01*
X21634000Y-66492000D01*
X21565879Y-66471998D01*
X21519386Y-66418342D01*
X21508000Y-66366000D01*
X21508000Y-63267548D01*
X30587000Y-63267548D01*
X30587000Y-63897743D01*
X30587161Y-63902250D01*
X30591740Y-63966269D01*
X30594126Y-63979491D01*
X30630819Y-64104458D01*
X30638233Y-64120692D01*
X30707426Y-64228360D01*
X30719112Y-64241847D01*
X30815840Y-64325662D01*
X30830848Y-64335307D01*
X30947275Y-64388477D01*
X30964388Y-64393502D01*
X31095554Y-64412361D01*
X31104495Y-64413000D01*
X31727885Y-64413000D01*
X31743124Y-64408525D01*
X31744329Y-64407135D01*
X31746000Y-64399452D01*
X31746000Y-63272115D01*
X31741525Y-63256876D01*
X31740135Y-63255671D01*
X31732452Y-63254000D01*
X30605115Y-63254000D01*
X30589876Y-63258475D01*
X30588671Y-63259865D01*
X30587000Y-63267548D01*
X21508000Y-63267548D01*
X21508000Y-62104495D01*
X30587000Y-62104495D01*
X30587000Y-62727885D01*
X30591475Y-62743124D01*
X30592865Y-62744329D01*
X30600548Y-62746000D01*
X31727885Y-62746000D01*
X31743124Y-62741525D01*
X31744329Y-62740135D01*
X31746000Y-62732452D01*
X31746000Y-61605115D01*
X31744659Y-61600548D01*
X32254000Y-61600548D01*
X32254000Y-64394885D01*
X32258475Y-64410124D01*
X32259865Y-64411329D01*
X32267548Y-64413000D01*
X32897743Y-64413000D01*
X32902250Y-64412839D01*
X32966269Y-64408260D01*
X32979491Y-64405874D01*
X33104458Y-64369181D01*
X33120692Y-64361767D01*
X33228360Y-64292574D01*
X33241847Y-64280888D01*
X33325662Y-64184160D01*
X33335307Y-64169152D01*
X33380044Y-64071190D01*
X33426537Y-64017534D01*
X33494658Y-63997532D01*
X33562779Y-64017534D01*
X33579049Y-64029968D01*
X33685399Y-64125895D01*
X33689912Y-64128754D01*
X33689914Y-64128755D01*
X33753936Y-64169306D01*
X33887318Y-64253790D01*
X33952257Y-64280888D01*
X34083339Y-64335586D01*
X34107900Y-64345835D01*
X34182548Y-64363000D01*
X34335629Y-64398201D01*
X34335633Y-64398202D01*
X34340836Y-64399398D01*
X34346169Y-64399701D01*
X34346170Y-64399701D01*
X34454877Y-64405874D01*
X34579467Y-64412949D01*
X34584774Y-64412349D01*
X34584776Y-64412349D01*
X34751486Y-64393502D01*
X34816970Y-64386099D01*
X34822085Y-64384618D01*
X34822089Y-64384617D01*
X35041430Y-64321100D01*
X35041435Y-64321098D01*
X35046553Y-64319616D01*
X35261652Y-64215401D01*
X35329790Y-64166709D01*
X35451771Y-64079540D01*
X35451773Y-64079538D01*
X35456117Y-64076434D01*
X35534334Y-63997532D01*
X35620635Y-63910475D01*
X35620636Y-63910474D01*
X35624388Y-63906689D01*
X35761652Y-63711019D01*
X35863986Y-63495018D01*
X35927711Y-63267547D01*
X37637000Y-63267547D01*
X37637000Y-63847743D01*
X37637161Y-63852250D01*
X37641740Y-63916269D01*
X37644126Y-63929491D01*
X37680819Y-64054458D01*
X37688233Y-64070692D01*
X37757426Y-64178360D01*
X37769112Y-64191847D01*
X37865840Y-64275662D01*
X37880848Y-64285307D01*
X37997275Y-64338477D01*
X38014388Y-64343502D01*
X38145554Y-64362361D01*
X38154495Y-64363000D01*
X38727885Y-64363000D01*
X38743124Y-64358525D01*
X38744329Y-64357135D01*
X38746000Y-64349452D01*
X38746001Y-63272115D01*
X38741526Y-63256876D01*
X38740136Y-63255671D01*
X38732453Y-63254000D01*
X37655115Y-63253999D01*
X37639876Y-63258474D01*
X37638671Y-63259864D01*
X37637000Y-63267547D01*
X35927711Y-63267547D01*
X35928463Y-63264863D01*
X35929296Y-63256876D01*
X35952933Y-63030083D01*
X35952933Y-63030080D01*
X35953240Y-63027136D01*
X35953500Y-63000000D01*
X35933292Y-62761840D01*
X35929181Y-62746000D01*
X35874586Y-62535655D01*
X35874584Y-62535650D01*
X35873245Y-62530490D01*
X35816499Y-62404518D01*
X35777267Y-62317426D01*
X35777266Y-62317423D01*
X35775077Y-62312565D01*
X35668658Y-62154495D01*
X37637000Y-62154495D01*
X37637000Y-62727885D01*
X37641475Y-62743124D01*
X37642865Y-62744329D01*
X37650548Y-62746000D01*
X38727885Y-62746001D01*
X38743124Y-62741526D01*
X38744329Y-62740136D01*
X38746000Y-62732453D01*
X38746001Y-61655115D01*
X38741526Y-61639876D01*
X38740136Y-61638671D01*
X38732453Y-61637000D01*
X38152257Y-61637000D01*
X38147750Y-61637161D01*
X38083731Y-61641740D01*
X38070509Y-61644126D01*
X37945542Y-61680819D01*
X37929308Y-61688233D01*
X37821640Y-61757426D01*
X37808153Y-61769112D01*
X37724338Y-61865840D01*
X37714693Y-61880848D01*
X37661523Y-61997275D01*
X37656498Y-62014388D01*
X37637639Y-62145554D01*
X37637000Y-62154495D01*
X35668658Y-62154495D01*
X35641594Y-62114296D01*
X35632245Y-62104495D01*
X35536804Y-62004448D01*
X35476613Y-61941351D01*
X35284852Y-61798677D01*
X35280101Y-61796261D01*
X35280097Y-61796259D01*
X35076549Y-61692770D01*
X35076548Y-61692770D01*
X35071793Y-61690352D01*
X34843528Y-61619474D01*
X34783540Y-61611523D01*
X34611868Y-61588769D01*
X34611865Y-61588769D01*
X34606585Y-61588069D01*
X34601256Y-61588269D01*
X34601255Y-61588269D01*
X34515862Y-61591475D01*
X34367738Y-61597036D01*
X34329234Y-61605115D01*
X34139043Y-61645021D01*
X34139040Y-61645022D01*
X34133816Y-61646118D01*
X33911508Y-61733911D01*
X33906944Y-61736680D01*
X33906945Y-61736680D01*
X33711732Y-61855138D01*
X33711729Y-61855140D01*
X33707171Y-61857906D01*
X33577200Y-61970689D01*
X33512643Y-62000228D01*
X33442362Y-61990174D01*
X33388673Y-61943720D01*
X33373726Y-61911022D01*
X33369180Y-61895540D01*
X33361767Y-61879308D01*
X33292574Y-61771640D01*
X33280888Y-61758153D01*
X33184160Y-61674338D01*
X33169152Y-61664693D01*
X33052725Y-61611523D01*
X33035612Y-61606498D01*
X32904446Y-61587639D01*
X32895505Y-61587000D01*
X32272115Y-61587000D01*
X32256876Y-61591475D01*
X32255671Y-61592865D01*
X32254000Y-61600548D01*
X31744659Y-61600548D01*
X31741525Y-61589876D01*
X31740135Y-61588671D01*
X31732452Y-61587000D01*
X31102257Y-61587000D01*
X31097750Y-61587161D01*
X31033731Y-61591740D01*
X31020509Y-61594126D01*
X30895542Y-61630819D01*
X30879308Y-61638233D01*
X30771640Y-61707426D01*
X30758153Y-61719112D01*
X30674338Y-61815840D01*
X30664693Y-61830848D01*
X30611523Y-61947275D01*
X30606498Y-61964388D01*
X30587639Y-62095554D01*
X30587000Y-62104495D01*
X21508000Y-62104495D01*
X21508000Y-41150000D01*
X22636500Y-41150000D01*
X22636500Y-42850000D01*
X22641727Y-42923079D01*
X22682904Y-43063316D01*
X22696503Y-43084476D01*
X22757051Y-43178691D01*
X22757053Y-43178694D01*
X22761923Y-43186271D01*
X22768733Y-43192172D01*
X22865569Y-43276082D01*
X22865572Y-43276084D01*
X22872381Y-43281984D01*
X23005330Y-43342700D01*
X23011639Y-43343607D01*
X23070244Y-43381269D01*
X23099738Y-43445849D01*
X23089636Y-43516123D01*
X23057601Y-43558949D01*
X23022492Y-43589415D01*
X23019109Y-43593541D01*
X23019105Y-43593545D01*
X22976779Y-43645166D01*
X22876304Y-43767705D01*
X22762245Y-43968077D01*
X22683578Y-44184802D01*
X22682629Y-44190051D01*
X22682628Y-44190054D01*
X22660890Y-44310265D01*
X22642551Y-44411683D01*
X22642500Y-44417023D01*
X22641097Y-44563210D01*
X22640338Y-44642233D01*
X22677002Y-44869861D01*
X22751494Y-45088056D01*
X22861685Y-45290580D01*
X23004424Y-45471644D01*
X23008389Y-45475220D01*
X23171659Y-45622489D01*
X23171665Y-45622494D01*
X23175629Y-45626069D01*
X23180142Y-45628928D01*
X23180144Y-45628929D01*
X23241855Y-45668016D01*
X23370406Y-45749439D01*
X23583184Y-45838228D01*
X23588387Y-45839425D01*
X23588392Y-45839426D01*
X23802678Y-45888701D01*
X23802683Y-45888702D01*
X23807881Y-45889897D01*
X23813209Y-45890200D01*
X23813212Y-45890200D01*
X23969293Y-45899063D01*
X24038071Y-45902968D01*
X24043378Y-45902368D01*
X24043380Y-45902368D01*
X24182113Y-45886684D01*
X24267173Y-45877068D01*
X24272288Y-45875587D01*
X24272292Y-45875586D01*
X24401298Y-45838228D01*
X24488635Y-45812937D01*
X24696125Y-45712409D01*
X24700463Y-45709309D01*
X24700468Y-45709306D01*
X24879370Y-45581459D01*
X24883711Y-45578357D01*
X25046030Y-45414617D01*
X25133043Y-45290580D01*
X25175375Y-45230236D01*
X25175376Y-45230234D01*
X25178439Y-45225868D01*
X25277153Y-45017508D01*
X25339349Y-44795494D01*
X25363249Y-44566176D01*
X25363500Y-44540000D01*
X25361633Y-44517998D01*
X25344458Y-44315576D01*
X25344457Y-44315572D01*
X25344007Y-44310265D01*
X25286084Y-44087098D01*
X25234731Y-43973098D01*
X25193578Y-43881743D01*
X25193577Y-43881741D01*
X25191388Y-43876882D01*
X25062627Y-43685626D01*
X24967508Y-43585915D01*
X24930868Y-43547507D01*
X24898321Y-43484410D01*
X24905052Y-43413733D01*
X24948926Y-43357916D01*
X24986538Y-43339640D01*
X25019545Y-43329948D01*
X25054670Y-43319635D01*
X25054672Y-43319634D01*
X25063316Y-43317096D01*
X25117951Y-43281984D01*
X25178691Y-43242949D01*
X25178694Y-43242947D01*
X25186271Y-43238077D01*
X25193523Y-43229708D01*
X25276082Y-43134431D01*
X25276084Y-43134428D01*
X25281984Y-43127619D01*
X25342700Y-42994670D01*
X25361118Y-42866568D01*
X25390611Y-42801988D01*
X25450338Y-42763604D01*
X25485836Y-42758500D01*
X25934014Y-42758500D01*
X25952965Y-42759933D01*
X25966122Y-42761935D01*
X25966125Y-42761935D01*
X25973355Y-42763035D01*
X25980647Y-42762442D01*
X25980650Y-42762442D01*
X26024007Y-42758915D01*
X26034222Y-42758500D01*
X26042886Y-42758500D01*
X26046520Y-42758076D01*
X26046526Y-42758076D01*
X26056467Y-42756917D01*
X26072515Y-42755046D01*
X26076842Y-42754618D01*
X26106196Y-42752230D01*
X26142307Y-42749293D01*
X26142311Y-42749292D01*
X26149604Y-42748699D01*
X26156563Y-42746445D01*
X26162483Y-42745262D01*
X26168373Y-42743870D01*
X26175643Y-42743022D01*
X26182523Y-42740525D01*
X26182526Y-42740524D01*
X26217960Y-42727662D01*
X26244264Y-42718114D01*
X26248410Y-42716691D01*
X26310867Y-42696458D01*
X26310869Y-42696457D01*
X26317830Y-42694202D01*
X26324087Y-42690405D01*
X26329562Y-42687898D01*
X26334976Y-42685187D01*
X26341864Y-42682687D01*
X26402918Y-42642658D01*
X26406627Y-42640318D01*
X26464211Y-42605375D01*
X26464213Y-42605373D01*
X26469006Y-42602465D01*
X26473209Y-42598753D01*
X26473213Y-42598750D01*
X26478292Y-42594265D01*
X26480872Y-42592047D01*
X26483627Y-42589744D01*
X26489747Y-42585731D01*
X26538894Y-42533850D01*
X26541272Y-42531408D01*
X27072945Y-41999735D01*
X27135257Y-41965709D01*
X27206072Y-41970774D01*
X27248697Y-41997361D01*
X27252157Y-42000639D01*
X27287852Y-42062010D01*
X27291500Y-42092108D01*
X27291501Y-46381261D01*
X27271499Y-46449382D01*
X27267437Y-46455323D01*
X27265387Y-46458145D01*
X27260963Y-46463058D01*
X27233964Y-46509822D01*
X27176490Y-46609370D01*
X27165476Y-46628446D01*
X27163434Y-46634731D01*
X27110619Y-46797278D01*
X27079882Y-46847437D01*
X26851877Y-47075443D01*
X26635225Y-47292095D01*
X26572912Y-47326120D01*
X26546129Y-47329000D01*
X25079334Y-47329000D01*
X25011213Y-47308998D01*
X24992681Y-47294473D01*
X24934407Y-47239269D01*
X24907355Y-47213643D01*
X24754445Y-47124826D01*
X24585204Y-47073568D01*
X24578764Y-47072993D01*
X24578763Y-47072993D01*
X24508815Y-47066750D01*
X24508809Y-47066750D01*
X24506022Y-47066501D01*
X24073085Y-47066501D01*
X23510778Y-47066500D01*
X23507115Y-47066500D01*
X23430410Y-47075443D01*
X23381630Y-47081130D01*
X23381629Y-47081130D01*
X23374358Y-47081978D01*
X23367480Y-47084474D01*
X23367478Y-47084475D01*
X23262159Y-47122704D01*
X23208137Y-47142313D01*
X23060254Y-47239269D01*
X22938643Y-47367645D01*
X22849825Y-47520555D01*
X22847704Y-47527559D01*
X22847702Y-47527563D01*
X22812681Y-47643194D01*
X22798567Y-47689796D01*
X22797992Y-47696236D01*
X22797992Y-47696237D01*
X22794606Y-47734182D01*
X22791500Y-47768978D01*
X22791500Y-48392885D01*
X22806978Y-48525642D01*
X22809474Y-48532520D01*
X22809475Y-48532522D01*
X22863306Y-48680825D01*
X22867313Y-48691863D01*
X22892425Y-48730165D01*
X22958222Y-48830522D01*
X22964269Y-48839746D01*
X22969581Y-48844778D01*
X23035481Y-48907206D01*
X23071179Y-48968576D01*
X23068031Y-49039502D01*
X23040301Y-49085332D01*
X22938643Y-49192645D01*
X22849825Y-49345555D01*
X22847704Y-49352559D01*
X22847702Y-49352563D01*
X22843435Y-49366653D01*
X22798567Y-49514796D01*
X22791500Y-49593978D01*
X22791500Y-50217885D01*
X22795197Y-50249595D01*
X22804254Y-50327274D01*
X22806978Y-50350642D01*
X22809474Y-50357520D01*
X22809475Y-50357522D01*
X22845601Y-50457047D01*
X22867313Y-50516863D01*
X22964269Y-50664746D01*
X23092645Y-50786357D01*
X23178787Y-50836392D01*
X23227645Y-50887901D01*
X23241501Y-50945345D01*
X23241500Y-52262083D01*
X23221498Y-52330204D01*
X23195853Y-52357409D01*
X23196631Y-52358306D01*
X23099426Y-52442656D01*
X23022492Y-52509415D01*
X23019109Y-52513541D01*
X23019105Y-52513545D01*
X22935089Y-52616011D01*
X22876304Y-52687705D01*
X22873665Y-52692341D01*
X22873663Y-52692344D01*
X22839565Y-52752246D01*
X22762245Y-52888077D01*
X22683578Y-53104802D01*
X22682629Y-53110051D01*
X22682628Y-53110054D01*
X22660890Y-53230265D01*
X22642551Y-53331683D01*
X22641779Y-53412140D01*
X22640526Y-53542696D01*
X22640338Y-53562233D01*
X22677002Y-53789861D01*
X22751494Y-54008056D01*
X22754044Y-54012743D01*
X22754045Y-54012745D01*
X22778112Y-54056978D01*
X22861685Y-54210580D01*
X23004424Y-54391644D01*
X23064034Y-54445411D01*
X23101219Y-54505888D01*
X23099805Y-54576871D01*
X23060240Y-54635821D01*
X23015138Y-54659868D01*
X22945330Y-54680365D01*
X22945328Y-54680366D01*
X22936684Y-54682904D01*
X22929105Y-54687775D01*
X22821309Y-54757051D01*
X22821306Y-54757053D01*
X22813729Y-54761923D01*
X22807828Y-54768733D01*
X22723918Y-54865569D01*
X22723916Y-54865572D01*
X22718016Y-54872381D01*
X22714272Y-54880579D01*
X22673643Y-54969545D01*
X22657300Y-55005330D01*
X22656018Y-55014245D01*
X22656018Y-55014246D01*
X22637139Y-55145552D01*
X22637138Y-55145559D01*
X22636500Y-55150000D01*
X22636500Y-56850000D01*
X22641727Y-56923079D01*
X22682904Y-57063316D01*
X22687775Y-57070895D01*
X22757051Y-57178691D01*
X22757053Y-57178694D01*
X22761923Y-57186271D01*
X22768733Y-57192172D01*
X22865569Y-57276082D01*
X22865572Y-57276084D01*
X22872381Y-57281984D01*
X23005330Y-57342700D01*
X23014245Y-57343982D01*
X23014246Y-57343982D01*
X23133432Y-57361118D01*
X23198012Y-57390611D01*
X23236396Y-57450338D01*
X23241500Y-57485836D01*
X23241501Y-59014907D01*
X23221499Y-59083028D01*
X23218061Y-59087982D01*
X23213643Y-59092645D01*
X23209968Y-59098972D01*
X23209965Y-59098976D01*
X23202621Y-59111620D01*
X23124826Y-59245555D01*
X23073568Y-59414796D01*
X23072993Y-59421236D01*
X23072993Y-59421237D01*
X23066879Y-59489747D01*
X23066501Y-59493978D01*
X23066500Y-60492885D01*
X23081978Y-60625642D01*
X23084474Y-60632520D01*
X23084475Y-60632522D01*
X23126118Y-60747246D01*
X23142313Y-60791863D01*
X23239269Y-60939746D01*
X23367645Y-61061358D01*
X23520555Y-61150175D01*
X23689796Y-61201433D01*
X23696236Y-61202008D01*
X23696237Y-61202008D01*
X23766185Y-61208251D01*
X23766191Y-61208251D01*
X23768978Y-61208500D01*
X24392885Y-61208500D01*
X24488105Y-61197398D01*
X24518370Y-61193870D01*
X24518371Y-61193870D01*
X24525642Y-61193022D01*
X24532520Y-61190526D01*
X24532522Y-61190525D01*
X24684984Y-61135184D01*
X24691863Y-61132687D01*
X24839746Y-61035731D01*
X24844777Y-61030420D01*
X24844782Y-61030416D01*
X24907548Y-60964158D01*
X24968917Y-60928459D01*
X25039844Y-60931606D01*
X25085675Y-60959338D01*
X25187633Y-61055925D01*
X25199275Y-61064635D01*
X25339429Y-61146043D01*
X25352754Y-61151837D01*
X25508700Y-61199068D01*
X25521323Y-61201516D01*
X25591184Y-61207751D01*
X25596779Y-61208000D01*
X25640385Y-61208000D01*
X25655624Y-61203525D01*
X25656829Y-61202135D01*
X25658500Y-61194452D01*
X25658500Y-61189885D01*
X26166499Y-61189885D01*
X26170974Y-61205124D01*
X26172364Y-61206329D01*
X26180047Y-61208000D01*
X26214222Y-61208000D01*
X26221523Y-61207576D01*
X26343254Y-61193383D01*
X26357409Y-61190037D01*
X26509760Y-61134737D01*
X26522759Y-61128227D01*
X26658305Y-61039359D01*
X26669457Y-61030035D01*
X26780921Y-60912371D01*
X26789634Y-60900724D01*
X26871042Y-60760571D01*
X26876836Y-60747246D01*
X26924067Y-60591300D01*
X26926515Y-60578677D01*
X26932750Y-60508816D01*
X26932999Y-60503221D01*
X26932999Y-60272115D01*
X26928524Y-60256876D01*
X26927134Y-60255671D01*
X26919451Y-60254000D01*
X26184615Y-60253999D01*
X26169376Y-60258474D01*
X26168171Y-60259864D01*
X26166500Y-60267547D01*
X26166499Y-61189885D01*
X25658500Y-61189885D01*
X25658501Y-60254000D01*
X25658500Y-60253996D01*
X25658500Y-59727885D01*
X26166499Y-59727885D01*
X26170974Y-59743124D01*
X26172364Y-59744329D01*
X26180047Y-59746000D01*
X26914885Y-59746001D01*
X26930124Y-59741526D01*
X26931329Y-59740136D01*
X26933000Y-59732453D01*
X26933000Y-59510778D01*
X26932576Y-59503477D01*
X26918383Y-59381746D01*
X26915037Y-59367591D01*
X26859737Y-59215240D01*
X26853227Y-59202241D01*
X26764362Y-59066700D01*
X26755029Y-59055537D01*
X26637372Y-58944079D01*
X26625725Y-58935365D01*
X26485571Y-58853957D01*
X26472246Y-58848163D01*
X26316300Y-58800932D01*
X26303677Y-58798484D01*
X26233816Y-58792249D01*
X26228221Y-58792000D01*
X26184615Y-58792000D01*
X26169376Y-58796475D01*
X26168171Y-58797865D01*
X26166500Y-58805548D01*
X26166499Y-59727885D01*
X25658500Y-59727885D01*
X25658501Y-58810115D01*
X25654026Y-58794876D01*
X25652636Y-58793671D01*
X25644953Y-58792000D01*
X25610778Y-58792000D01*
X25603477Y-58792424D01*
X25481746Y-58806617D01*
X25467591Y-58809963D01*
X25315240Y-58865263D01*
X25302241Y-58871773D01*
X25166695Y-58960641D01*
X25155543Y-58969965D01*
X25093155Y-59035823D01*
X25031786Y-59071521D01*
X24960859Y-59068373D01*
X24915029Y-59040643D01*
X24907995Y-59033979D01*
X24807355Y-58938642D01*
X24807248Y-58938580D01*
X24766458Y-58884125D01*
X24758500Y-58840056D01*
X24758500Y-57767547D01*
X28367000Y-57767547D01*
X28367000Y-57789222D01*
X28367424Y-57796523D01*
X28381617Y-57918254D01*
X28384963Y-57932409D01*
X28440263Y-58084760D01*
X28446773Y-58097759D01*
X28535641Y-58233305D01*
X28544965Y-58244457D01*
X28662629Y-58355921D01*
X28674276Y-58364634D01*
X28814429Y-58446042D01*
X28827754Y-58451836D01*
X28983700Y-58499067D01*
X28996323Y-58501515D01*
X29066184Y-58507750D01*
X29071779Y-58507999D01*
X29327885Y-58507999D01*
X29343124Y-58503524D01*
X29344329Y-58502134D01*
X29346000Y-58494451D01*
X29346000Y-58489885D01*
X29853999Y-58489885D01*
X29858474Y-58505124D01*
X29859864Y-58506329D01*
X29867547Y-58508000D01*
X30114222Y-58508000D01*
X30121523Y-58507576D01*
X30243254Y-58493383D01*
X30257409Y-58490037D01*
X30409760Y-58434737D01*
X30422759Y-58428227D01*
X30558305Y-58339359D01*
X30569457Y-58330035D01*
X30680921Y-58212371D01*
X30689636Y-58200721D01*
X30771039Y-58060578D01*
X30776838Y-58047241D01*
X30824068Y-57891300D01*
X30826516Y-57878677D01*
X30832751Y-57808816D01*
X30833000Y-57803221D01*
X30833000Y-57772115D01*
X30828525Y-57756876D01*
X30827135Y-57755671D01*
X30819452Y-57754000D01*
X29872115Y-57753999D01*
X29856876Y-57758474D01*
X29855671Y-57759864D01*
X29854000Y-57767547D01*
X29853999Y-58489885D01*
X29346000Y-58489885D01*
X29346001Y-57772115D01*
X29341526Y-57756876D01*
X29340136Y-57755671D01*
X29332453Y-57754000D01*
X28385115Y-57753999D01*
X28369876Y-57758474D01*
X28368671Y-57759864D01*
X28367000Y-57767547D01*
X24758500Y-57767547D01*
X24758500Y-57487354D01*
X24778502Y-57419233D01*
X24832158Y-57372740D01*
X24875511Y-57361675D01*
X24923079Y-57358273D01*
X25001165Y-57335345D01*
X25054670Y-57319635D01*
X25054672Y-57319634D01*
X25063316Y-57317096D01*
X25162707Y-57253221D01*
X25178691Y-57242949D01*
X25178694Y-57242947D01*
X25186271Y-57238077D01*
X25194812Y-57228220D01*
X25276082Y-57134431D01*
X25276084Y-57134428D01*
X25281984Y-57127619D01*
X25342700Y-56994670D01*
X25348726Y-56952759D01*
X25362861Y-56854448D01*
X25362862Y-56854441D01*
X25363500Y-56850000D01*
X25363500Y-55150000D01*
X25358273Y-55076921D01*
X25326745Y-54969545D01*
X25319635Y-54945330D01*
X25319634Y-54945328D01*
X25317096Y-54936684D01*
X25277797Y-54875534D01*
X25242949Y-54821309D01*
X25242947Y-54821306D01*
X25238077Y-54813729D01*
X25186432Y-54768978D01*
X25134431Y-54723918D01*
X25134428Y-54723916D01*
X25127619Y-54718016D01*
X24994670Y-54657300D01*
X24987612Y-54656285D01*
X24928687Y-54618417D01*
X24899193Y-54553836D01*
X24909296Y-54483562D01*
X24934427Y-54447197D01*
X24936199Y-54445410D01*
X25015644Y-54365269D01*
X25042277Y-54338403D01*
X25042278Y-54338402D01*
X25046030Y-54334617D01*
X25060426Y-54314095D01*
X25175375Y-54150236D01*
X25175376Y-54150234D01*
X25178439Y-54145868D01*
X25277153Y-53937508D01*
X25339349Y-53715494D01*
X25340052Y-53708755D01*
X25347766Y-53634731D01*
X25363249Y-53486176D01*
X25363410Y-53469421D01*
X25363472Y-53462963D01*
X25363472Y-53462954D01*
X25363500Y-53460000D01*
X25354410Y-53352864D01*
X25344458Y-53235576D01*
X25344457Y-53235572D01*
X25344007Y-53230265D01*
X25339815Y-53214112D01*
X25287426Y-53012269D01*
X25286084Y-53007098D01*
X25272936Y-52977909D01*
X25193578Y-52801743D01*
X25193577Y-52801741D01*
X25191388Y-52796882D01*
X25062627Y-52605626D01*
X25054583Y-52597193D01*
X24907161Y-52442656D01*
X24903482Y-52438799D01*
X24809287Y-52368715D01*
X24766574Y-52312006D01*
X24758500Y-52267627D01*
X24758500Y-50947618D01*
X24778502Y-50879497D01*
X24815415Y-50842246D01*
X24876408Y-50802257D01*
X24939746Y-50760731D01*
X25061357Y-50632355D01*
X25150175Y-50479445D01*
X25152640Y-50471309D01*
X25199558Y-50316395D01*
X25199558Y-50316394D01*
X25201433Y-50310204D01*
X25205334Y-50266498D01*
X25208251Y-50233815D01*
X25208251Y-50233809D01*
X25208500Y-50231022D01*
X25208500Y-49607115D01*
X25193022Y-49474358D01*
X25132687Y-49308137D01*
X25035731Y-49160254D01*
X25030420Y-49155223D01*
X25030416Y-49155218D01*
X24964519Y-49092794D01*
X24928820Y-49031425D01*
X24931967Y-48960498D01*
X24959696Y-48914671D01*
X24987475Y-48885346D01*
X25048843Y-48849649D01*
X25078947Y-48846000D01*
X26846514Y-48846000D01*
X26865465Y-48847433D01*
X26878622Y-48849435D01*
X26878625Y-48849435D01*
X26885855Y-48850535D01*
X26893147Y-48849942D01*
X26893150Y-48849942D01*
X26936507Y-48846415D01*
X26946722Y-48846000D01*
X26955386Y-48846000D01*
X26959020Y-48845576D01*
X26959026Y-48845576D01*
X26968967Y-48844417D01*
X26985015Y-48842546D01*
X26989342Y-48842118D01*
X27018696Y-48839730D01*
X27054807Y-48836793D01*
X27054811Y-48836792D01*
X27062104Y-48836199D01*
X27069063Y-48833945D01*
X27074983Y-48832762D01*
X27080873Y-48831370D01*
X27088143Y-48830522D01*
X27095023Y-48828025D01*
X27095026Y-48828024D01*
X27130460Y-48815162D01*
X27156764Y-48805614D01*
X27160910Y-48804191D01*
X27223367Y-48783958D01*
X27223369Y-48783957D01*
X27230330Y-48781702D01*
X27236587Y-48777905D01*
X27242062Y-48775398D01*
X27247476Y-48772687D01*
X27254364Y-48770187D01*
X27315418Y-48730158D01*
X27319127Y-48727818D01*
X27376711Y-48692875D01*
X27376713Y-48692873D01*
X27381506Y-48689965D01*
X27385709Y-48686253D01*
X27385713Y-48686250D01*
X27390792Y-48681765D01*
X27393372Y-48679547D01*
X27396127Y-48677244D01*
X27402247Y-48673231D01*
X27451394Y-48621350D01*
X27453772Y-48618908D01*
X27975905Y-48096775D01*
X28038217Y-48062749D01*
X28109032Y-48067814D01*
X28154095Y-48096775D01*
X28310316Y-48252996D01*
X28344342Y-48315308D01*
X28344988Y-48365705D01*
X28341500Y-48383989D01*
X28341500Y-48784578D01*
X28347073Y-48828691D01*
X28356336Y-48902015D01*
X28357345Y-48910005D01*
X28360262Y-48917371D01*
X28360262Y-48917373D01*
X28408277Y-49038643D01*
X28418571Y-49064643D01*
X28423229Y-49071054D01*
X28423230Y-49071056D01*
X28485093Y-49156203D01*
X28508952Y-49223071D01*
X28492871Y-49292223D01*
X28480241Y-49310580D01*
X28444841Y-49353370D01*
X28444838Y-49353374D01*
X28439788Y-49359479D01*
X28368974Y-49509967D01*
X28367489Y-49517750D01*
X28367488Y-49517754D01*
X28349743Y-49610778D01*
X28341500Y-49653989D01*
X28341500Y-50054578D01*
X28357345Y-50180005D01*
X28360262Y-50187371D01*
X28360262Y-50187373D01*
X28409227Y-50311042D01*
X28418571Y-50334643D01*
X28423229Y-50341054D01*
X28423230Y-50341056D01*
X28485093Y-50426203D01*
X28508952Y-50493071D01*
X28492871Y-50562223D01*
X28480241Y-50580580D01*
X28444841Y-50623370D01*
X28444838Y-50623374D01*
X28439788Y-50629479D01*
X28368974Y-50779967D01*
X28367489Y-50787750D01*
X28367488Y-50787754D01*
X28351261Y-50872819D01*
X28341500Y-50923989D01*
X28341500Y-51324578D01*
X28347924Y-51375431D01*
X28356285Y-51441611D01*
X28357345Y-51450005D01*
X28360262Y-51457371D01*
X28360262Y-51457373D01*
X28407380Y-51576377D01*
X28418571Y-51604643D01*
X28423229Y-51611054D01*
X28423230Y-51611056D01*
X28485093Y-51696203D01*
X28508952Y-51763071D01*
X28492871Y-51832223D01*
X28480241Y-51850580D01*
X28444841Y-51893370D01*
X28444838Y-51893374D01*
X28439788Y-51899479D01*
X28368974Y-52049967D01*
X28367489Y-52057750D01*
X28367488Y-52057754D01*
X28342614Y-52188148D01*
X28341500Y-52193989D01*
X28341500Y-52594578D01*
X28346430Y-52633606D01*
X28353851Y-52692344D01*
X28357345Y-52720005D01*
X28360262Y-52727371D01*
X28360262Y-52727373D01*
X28414197Y-52863595D01*
X28418571Y-52874643D01*
X28423229Y-52881054D01*
X28423230Y-52881056D01*
X28444545Y-52910393D01*
X28516329Y-53009196D01*
X28644479Y-53115211D01*
X28651652Y-53118586D01*
X28651653Y-53118587D01*
X28769149Y-53173876D01*
X28822270Y-53220978D01*
X28841501Y-53287884D01*
X28841500Y-54561216D01*
X28821498Y-54629337D01*
X28781687Y-54665101D01*
X28783137Y-54667313D01*
X28646166Y-54757115D01*
X28635254Y-54764269D01*
X28513643Y-54892645D01*
X28475597Y-54958145D01*
X28433246Y-55031058D01*
X28424825Y-55045555D01*
X28422704Y-55052559D01*
X28422702Y-55052563D01*
X28394539Y-55145552D01*
X28373567Y-55214796D01*
X28366500Y-55293978D01*
X28366500Y-55892885D01*
X28381978Y-56025642D01*
X28384474Y-56032520D01*
X28384475Y-56032522D01*
X28433061Y-56166373D01*
X28442313Y-56191863D01*
X28539269Y-56339746D01*
X28544580Y-56344777D01*
X28544584Y-56344782D01*
X28665737Y-56459550D01*
X28701436Y-56520919D01*
X28698289Y-56591846D01*
X28657295Y-56649811D01*
X28648172Y-56656394D01*
X28641694Y-56660641D01*
X28630543Y-56669965D01*
X28519079Y-56787629D01*
X28510364Y-56799279D01*
X28428961Y-56939422D01*
X28423162Y-56952759D01*
X28375932Y-57108700D01*
X28373484Y-57121323D01*
X28367249Y-57191184D01*
X28367000Y-57196779D01*
X28367000Y-57227885D01*
X28371475Y-57243124D01*
X28372865Y-57244329D01*
X28380548Y-57246000D01*
X29345998Y-57246001D01*
X29346004Y-57246000D01*
X30814885Y-57246001D01*
X30830124Y-57241526D01*
X30831329Y-57240136D01*
X30833000Y-57232453D01*
X30833000Y-57210778D01*
X30832576Y-57203477D01*
X30818383Y-57081746D01*
X30815037Y-57067591D01*
X30759737Y-56915240D01*
X30753227Y-56902241D01*
X30664359Y-56766695D01*
X30655035Y-56755543D01*
X30534206Y-56641081D01*
X30498508Y-56579712D01*
X30501655Y-56508785D01*
X30542649Y-56450819D01*
X30551773Y-56444237D01*
X30558624Y-56439745D01*
X30558625Y-56439744D01*
X30564746Y-56435731D01*
X30573545Y-56426442D01*
X30600634Y-56397847D01*
X30662004Y-56362149D01*
X30692107Y-56358500D01*
X32115500Y-56358500D01*
X32183621Y-56378502D01*
X32230114Y-56432158D01*
X32241500Y-56484500D01*
X32241501Y-58974786D01*
X32241259Y-58982587D01*
X32237617Y-59041289D01*
X32238857Y-59048505D01*
X32238857Y-59048506D01*
X32248543Y-59104871D01*
X32249515Y-59111617D01*
X32256979Y-59175643D01*
X32260216Y-59184561D01*
X32265955Y-59206205D01*
X32267564Y-59215568D01*
X32270427Y-59222296D01*
X32270428Y-59222300D01*
X32292819Y-59274922D01*
X32295317Y-59281263D01*
X32317314Y-59341864D01*
X32321325Y-59347983D01*
X32321328Y-59347988D01*
X32322518Y-59349803D01*
X32333079Y-59369539D01*
X32336800Y-59378283D01*
X32341139Y-59384179D01*
X32375029Y-59430231D01*
X32378919Y-59435828D01*
X32414270Y-59489747D01*
X32419581Y-59494778D01*
X32421155Y-59496269D01*
X32435985Y-59513062D01*
X32437266Y-59514803D01*
X32437270Y-59514808D01*
X32441611Y-59520706D01*
X32447194Y-59525449D01*
X32490762Y-59562463D01*
X32495835Y-59567015D01*
X32537329Y-59606322D01*
X32537333Y-59606325D01*
X32542646Y-59611358D01*
X32548972Y-59615033D01*
X32548974Y-59615034D01*
X32550851Y-59616124D01*
X32569138Y-59629048D01*
X32576376Y-59635197D01*
X32582898Y-59638527D01*
X32582899Y-59638528D01*
X32633831Y-59664536D01*
X32639814Y-59667798D01*
X32689227Y-59696499D01*
X32695556Y-59700175D01*
X32702555Y-59702295D01*
X32702563Y-59702298D01*
X32704634Y-59702925D01*
X32725412Y-59711299D01*
X32733865Y-59715615D01*
X32740971Y-59717354D01*
X32740974Y-59717355D01*
X32796513Y-59730945D01*
X32803088Y-59732744D01*
X32857787Y-59749311D01*
X32857796Y-59749313D01*
X32864797Y-59751433D01*
X32874184Y-59752015D01*
X32874273Y-59752021D01*
X32896410Y-59755389D01*
X32900173Y-59756310D01*
X32900176Y-59756310D01*
X32905630Y-59757645D01*
X32911236Y-59757993D01*
X32911237Y-59757993D01*
X32917472Y-59758380D01*
X32917482Y-59758380D01*
X32919411Y-59758500D01*
X32974802Y-59758500D01*
X32982603Y-59758742D01*
X33041289Y-59762383D01*
X33048504Y-59761143D01*
X33048508Y-59761143D01*
X33053296Y-59760320D01*
X33074634Y-59758500D01*
X45375810Y-59758500D01*
X45443931Y-59778502D01*
X45490424Y-59832158D01*
X45500528Y-59902431D01*
X45487139Y-59995552D01*
X45487138Y-59995559D01*
X45486500Y-60000000D01*
X45486500Y-62000000D01*
X45491727Y-62073079D01*
X45493630Y-62079559D01*
X45493759Y-62079998D01*
X45493759Y-62080274D01*
X45494829Y-62086204D01*
X45493759Y-62086397D01*
X45493761Y-62150995D01*
X45455379Y-62210722D01*
X45390799Y-62240217D01*
X45372864Y-62241500D01*
X42734239Y-62241500D01*
X42666118Y-62221498D01*
X42629719Y-62185867D01*
X42607500Y-62152864D01*
X42602627Y-62145626D01*
X42569059Y-62110437D01*
X42518356Y-62057287D01*
X42443482Y-61978799D01*
X42432581Y-61970688D01*
X42309762Y-61879308D01*
X42258504Y-61841171D01*
X42253753Y-61838755D01*
X42253749Y-61838753D01*
X42057740Y-61739097D01*
X42057739Y-61739097D01*
X42052982Y-61736678D01*
X41911576Y-61692770D01*
X41837895Y-61669891D01*
X41837889Y-61669890D01*
X41832792Y-61668307D01*
X41698800Y-61650548D01*
X41609515Y-61638714D01*
X41609510Y-61638714D01*
X41604230Y-61638014D01*
X41598900Y-61638214D01*
X41598899Y-61638214D01*
X41489031Y-61642338D01*
X41373831Y-61646663D01*
X41303010Y-61661523D01*
X41153411Y-61692912D01*
X41153408Y-61692913D01*
X41148184Y-61694009D01*
X40933740Y-61778697D01*
X40736631Y-61898306D01*
X40732601Y-61901803D01*
X40602663Y-62014557D01*
X40562492Y-62049415D01*
X40556961Y-62056160D01*
X40555778Y-62056967D01*
X40555390Y-62057366D01*
X40555309Y-62057287D01*
X40498305Y-62096157D01*
X40427335Y-62098093D01*
X40366585Y-62061352D01*
X40338628Y-62011773D01*
X40319180Y-61945540D01*
X40311767Y-61929308D01*
X40242574Y-61821640D01*
X40230888Y-61808153D01*
X40134160Y-61724338D01*
X40119152Y-61714693D01*
X40002725Y-61661523D01*
X39985612Y-61656498D01*
X39854446Y-61637639D01*
X39845505Y-61637000D01*
X39272115Y-61637000D01*
X39256876Y-61641475D01*
X39255671Y-61642865D01*
X39254000Y-61650548D01*
X39253999Y-62745998D01*
X39254000Y-62746004D01*
X39253999Y-64344885D01*
X39258474Y-64360124D01*
X39259864Y-64361329D01*
X39267547Y-64363000D01*
X39847743Y-64363000D01*
X39852250Y-64362839D01*
X39916269Y-64358260D01*
X39929491Y-64355874D01*
X40054458Y-64319181D01*
X40070692Y-64311767D01*
X40178360Y-64242574D01*
X40191847Y-64230888D01*
X40275662Y-64134160D01*
X40285307Y-64119152D01*
X40338478Y-64002723D01*
X40341637Y-63991964D01*
X40380021Y-63932238D01*
X40444601Y-63902744D01*
X40514875Y-63912848D01*
X40546921Y-63933897D01*
X40715629Y-64086069D01*
X40720142Y-64088928D01*
X40720144Y-64088929D01*
X40770292Y-64120692D01*
X40910406Y-64209439D01*
X41123184Y-64298228D01*
X41128387Y-64299425D01*
X41128392Y-64299426D01*
X41342678Y-64348701D01*
X41342683Y-64348702D01*
X41347881Y-64349897D01*
X41353209Y-64350200D01*
X41353212Y-64350200D01*
X41499826Y-64358525D01*
X41578071Y-64362968D01*
X41583378Y-64362368D01*
X41583380Y-64362368D01*
X41729623Y-64345835D01*
X41807173Y-64337068D01*
X41812288Y-64335587D01*
X41812292Y-64335586D01*
X41941298Y-64298228D01*
X42028635Y-64272937D01*
X42236125Y-64172409D01*
X42240463Y-64169309D01*
X42240468Y-64169306D01*
X42419370Y-64041459D01*
X42423711Y-64038357D01*
X42499893Y-63961508D01*
X42582277Y-63878403D01*
X42582278Y-63878402D01*
X42586030Y-63874617D01*
X42629859Y-63812139D01*
X42685355Y-63767859D01*
X42733009Y-63758500D01*
X46974801Y-63758500D01*
X46982602Y-63758742D01*
X47041288Y-63762383D01*
X47048504Y-63761143D01*
X47048506Y-63761143D01*
X47104845Y-63751462D01*
X47111591Y-63750490D01*
X47168372Y-63743870D01*
X47168374Y-63743869D01*
X47175643Y-63743022D01*
X47182517Y-63740527D01*
X47182529Y-63740524D01*
X47184566Y-63739784D01*
X47206221Y-63734042D01*
X47208353Y-63733676D01*
X47208356Y-63733675D01*
X47215567Y-63732436D01*
X47274903Y-63707188D01*
X47281237Y-63704693D01*
X47341864Y-63682687D01*
X47347986Y-63678674D01*
X47347989Y-63678672D01*
X47349806Y-63677481D01*
X47369551Y-63666916D01*
X47371543Y-63666068D01*
X47371545Y-63666067D01*
X47378282Y-63663200D01*
X47430213Y-63624984D01*
X47435807Y-63621096D01*
X47483622Y-63589747D01*
X47483623Y-63589746D01*
X47489747Y-63585731D01*
X47496274Y-63578841D01*
X47513064Y-63564013D01*
X47514802Y-63562734D01*
X47514808Y-63562729D01*
X47520705Y-63558389D01*
X47562467Y-63509232D01*
X47566981Y-63504201D01*
X47611358Y-63457355D01*
X47616126Y-63449147D01*
X47629049Y-63430861D01*
X47630457Y-63429204D01*
X47630458Y-63429202D01*
X47635197Y-63423624D01*
X47664529Y-63366180D01*
X47667792Y-63360196D01*
X47696499Y-63310773D01*
X47700175Y-63304445D01*
X47702926Y-63295362D01*
X47711298Y-63274590D01*
X47712283Y-63272660D01*
X47715615Y-63266135D01*
X47730954Y-63203448D01*
X47732741Y-63196918D01*
X47749312Y-63142208D01*
X47749312Y-63142205D01*
X47751433Y-63135204D01*
X47752021Y-63125728D01*
X47755389Y-63103590D01*
X47756310Y-63099827D01*
X47756310Y-63099824D01*
X47757645Y-63094370D01*
X47758500Y-63080589D01*
X47758500Y-63025199D01*
X47758742Y-63017397D01*
X47762383Y-62958711D01*
X47760320Y-62946704D01*
X47758500Y-62925366D01*
X47758500Y-62639500D01*
X47778502Y-62571379D01*
X47832158Y-62524886D01*
X47884500Y-62513500D01*
X48000000Y-62513500D01*
X48073079Y-62508273D01*
X48174842Y-62478393D01*
X48204670Y-62469635D01*
X48204672Y-62469634D01*
X48213316Y-62467096D01*
X48251472Y-62442574D01*
X48328691Y-62392949D01*
X48328694Y-62392947D01*
X48336271Y-62388077D01*
X48401703Y-62312565D01*
X48426082Y-62284431D01*
X48426084Y-62284428D01*
X48431984Y-62277619D01*
X48453787Y-62229877D01*
X51134739Y-62229877D01*
X51143846Y-62241734D01*
X51221157Y-62296677D01*
X51229815Y-62301838D01*
X51438488Y-62404518D01*
X51447872Y-62408233D01*
X51670257Y-62476223D01*
X51680127Y-62478393D01*
X51910520Y-62509953D01*
X51920611Y-62510517D01*
X52153091Y-62504836D01*
X52163124Y-62503781D01*
X52391716Y-62461001D01*
X52401455Y-62458355D01*
X52620263Y-62379579D01*
X52629456Y-62375409D01*
X52832848Y-62262667D01*
X52841264Y-62257076D01*
X52858704Y-62243353D01*
X52867173Y-62231451D01*
X52860676Y-62219886D01*
X52012812Y-61372022D01*
X51998868Y-61364408D01*
X51997035Y-61364539D01*
X51990420Y-61368790D01*
X51141243Y-62217967D01*
X51134739Y-62229877D01*
X48453787Y-62229877D01*
X48492700Y-62144670D01*
X48501959Y-62080274D01*
X48512861Y-62004448D01*
X48512862Y-62004441D01*
X48513500Y-62000000D01*
X48513500Y-61100479D01*
X50490739Y-61100479D01*
X50491443Y-61110550D01*
X50526218Y-61340490D01*
X50528522Y-61350314D01*
X50599613Y-61571735D01*
X50603461Y-61581071D01*
X50709040Y-61788283D01*
X50714325Y-61796874D01*
X50758392Y-61857083D01*
X50769404Y-61865513D01*
X50782146Y-61858644D01*
X51627978Y-61012812D01*
X51634355Y-61001132D01*
X52364408Y-61001132D01*
X52364539Y-61002965D01*
X52368790Y-61009580D01*
X53218567Y-61859357D01*
X53230947Y-61866117D01*
X53239680Y-61859579D01*
X53323069Y-61733113D01*
X53327926Y-61724278D01*
X53423259Y-61512154D01*
X53426642Y-61502653D01*
X53486836Y-61278007D01*
X53488655Y-61268095D01*
X53512378Y-61034540D01*
X53512698Y-61028816D01*
X53512970Y-61002857D01*
X53512771Y-60997152D01*
X53493943Y-60763142D01*
X53492331Y-60753189D01*
X53436856Y-60527337D01*
X53433673Y-60517767D01*
X53342803Y-60303690D01*
X53338130Y-60294753D01*
X53242036Y-60142155D01*
X53231465Y-60132824D01*
X53222303Y-60136907D01*
X52372022Y-60987188D01*
X52364408Y-61001132D01*
X51634355Y-61001132D01*
X51635592Y-60998868D01*
X51635461Y-60997035D01*
X51631210Y-60990420D01*
X50781314Y-60140524D01*
X50768746Y-60133661D01*
X50757697Y-60141845D01*
X50731296Y-60176375D01*
X50725832Y-60184854D01*
X50615936Y-60389809D01*
X50611894Y-60399061D01*
X50536182Y-60618947D01*
X50533673Y-60628719D01*
X50494089Y-60857885D01*
X50493174Y-60867933D01*
X50490739Y-61100479D01*
X48513500Y-61100479D01*
X48513500Y-60000000D01*
X48508273Y-59926921D01*
X48467096Y-59786684D01*
X48455704Y-59768957D01*
X51134891Y-59768957D01*
X51142081Y-59782871D01*
X51987188Y-60627978D01*
X52001132Y-60635592D01*
X52002965Y-60635461D01*
X52009580Y-60631210D01*
X52861493Y-59779297D01*
X52868701Y-59766096D01*
X52862495Y-59757403D01*
X52859120Y-59755057D01*
X52658114Y-59638069D01*
X52649023Y-59633714D01*
X52431907Y-59550371D01*
X52422230Y-59547523D01*
X52194591Y-59499967D01*
X52184564Y-59498700D01*
X51952251Y-59488152D01*
X51942173Y-59488503D01*
X51711150Y-59515233D01*
X51701256Y-59517192D01*
X51477473Y-59580516D01*
X51468029Y-59584028D01*
X51257247Y-59682318D01*
X51248482Y-59687297D01*
X51143215Y-59758836D01*
X51134891Y-59768957D01*
X48455704Y-59768957D01*
X48439876Y-59744329D01*
X48392949Y-59671309D01*
X48392947Y-59671306D01*
X48388077Y-59663729D01*
X48353438Y-59633714D01*
X48284431Y-59573918D01*
X48284428Y-59573916D01*
X48277619Y-59568016D01*
X48174025Y-59520706D01*
X48152864Y-59511042D01*
X48152863Y-59511042D01*
X48144670Y-59507300D01*
X48135755Y-59506018D01*
X48135754Y-59506018D01*
X48004448Y-59487139D01*
X48004441Y-59487138D01*
X48000000Y-59486500D01*
X47884500Y-59486500D01*
X47816379Y-59466498D01*
X47769886Y-59412842D01*
X47758500Y-59360500D01*
X47758500Y-59025199D01*
X47758742Y-59017397D01*
X47762383Y-58958711D01*
X47751459Y-58895141D01*
X47750488Y-58888398D01*
X47743871Y-58831634D01*
X47743870Y-58831629D01*
X47743022Y-58824357D01*
X47739784Y-58815437D01*
X47734042Y-58793780D01*
X47733676Y-58791650D01*
X47732436Y-58784432D01*
X47729568Y-58777691D01*
X47707188Y-58725093D01*
X47704690Y-58718753D01*
X47702948Y-58713954D01*
X47682687Y-58658136D01*
X47678678Y-58652022D01*
X47678676Y-58652017D01*
X47677484Y-58650200D01*
X47666917Y-58630453D01*
X47663200Y-58621717D01*
X47658860Y-58615820D01*
X47658858Y-58615816D01*
X47624980Y-58569780D01*
X47621090Y-58564184D01*
X47589747Y-58516378D01*
X47589746Y-58516377D01*
X47585731Y-58510253D01*
X47578837Y-58503722D01*
X47564014Y-58486937D01*
X47562729Y-58485190D01*
X47562724Y-58485185D01*
X47558389Y-58479294D01*
X47552810Y-58474555D01*
X47552808Y-58474552D01*
X47509239Y-58437536D01*
X47504168Y-58432986D01*
X47462674Y-58393679D01*
X47462666Y-58393673D01*
X47457355Y-58388642D01*
X47451029Y-58384968D01*
X47451020Y-58384961D01*
X47449153Y-58383877D01*
X47430858Y-58370948D01*
X47429206Y-58369545D01*
X47429204Y-58369544D01*
X47423624Y-58364803D01*
X47366180Y-58335471D01*
X47360196Y-58332208D01*
X47336600Y-58318502D01*
X47304445Y-58299825D01*
X47295362Y-58297074D01*
X47274590Y-58288702D01*
X47272660Y-58287717D01*
X47272661Y-58287717D01*
X47266135Y-58284385D01*
X47203448Y-58269046D01*
X47196931Y-58267262D01*
X47168173Y-58258553D01*
X47142208Y-58250688D01*
X47142205Y-58250688D01*
X47135204Y-58248567D01*
X47126126Y-58248004D01*
X47125728Y-58247979D01*
X47103590Y-58244611D01*
X47099827Y-58243690D01*
X47099824Y-58243690D01*
X47094370Y-58242355D01*
X47088764Y-58242007D01*
X47088763Y-58242007D01*
X47082528Y-58241620D01*
X47082518Y-58241620D01*
X47080589Y-58241500D01*
X47025199Y-58241500D01*
X47017397Y-58241258D01*
X46958712Y-58237617D01*
X46951497Y-58238857D01*
X46951493Y-58238857D01*
X46946705Y-58239680D01*
X46925367Y-58241500D01*
X33884500Y-58241500D01*
X33816379Y-58221498D01*
X33769886Y-58167842D01*
X33758500Y-58115500D01*
X33758500Y-57762740D01*
X33778502Y-57694619D01*
X33832158Y-57648126D01*
X33902432Y-57638022D01*
X33971152Y-57671267D01*
X34092645Y-57786357D01*
X34245555Y-57875174D01*
X34414796Y-57926432D01*
X34421236Y-57927007D01*
X34421237Y-57927007D01*
X34491185Y-57933250D01*
X34491191Y-57933250D01*
X34493978Y-57933499D01*
X34926915Y-57933499D01*
X35489222Y-57933500D01*
X35492885Y-57933500D01*
X35588105Y-57922398D01*
X35618370Y-57918870D01*
X35618371Y-57918870D01*
X35625642Y-57918022D01*
X35632520Y-57915526D01*
X35632522Y-57915525D01*
X35784984Y-57860184D01*
X35791863Y-57857687D01*
X35908338Y-57781323D01*
X35933627Y-57764743D01*
X35933628Y-57764742D01*
X35939746Y-57760731D01*
X36061357Y-57632355D01*
X36150175Y-57479445D01*
X36168412Y-57419233D01*
X36199558Y-57316395D01*
X36199558Y-57316394D01*
X36201433Y-57310204D01*
X36202008Y-57303763D01*
X36208251Y-57233815D01*
X36208251Y-57233809D01*
X36208500Y-57231022D01*
X36208500Y-57217547D01*
X36767000Y-57217547D01*
X36767000Y-57239222D01*
X36767424Y-57246523D01*
X36781617Y-57368254D01*
X36784963Y-57382409D01*
X36840263Y-57534760D01*
X36846773Y-57547759D01*
X36935641Y-57683305D01*
X36944965Y-57694457D01*
X37062629Y-57805921D01*
X37074276Y-57814634D01*
X37214429Y-57896042D01*
X37227754Y-57901836D01*
X37383700Y-57949067D01*
X37396323Y-57951515D01*
X37466184Y-57957750D01*
X37471779Y-57957999D01*
X37727885Y-57957999D01*
X37743124Y-57953524D01*
X37744329Y-57952134D01*
X37746000Y-57944451D01*
X37746000Y-57939885D01*
X38253999Y-57939885D01*
X38258474Y-57955124D01*
X38259864Y-57956329D01*
X38267547Y-57958000D01*
X38514222Y-57958000D01*
X38521523Y-57957576D01*
X38643254Y-57943383D01*
X38657409Y-57940037D01*
X38809760Y-57884737D01*
X38822759Y-57878227D01*
X38958305Y-57789359D01*
X38969457Y-57780035D01*
X39080921Y-57662371D01*
X39089636Y-57650721D01*
X39171039Y-57510578D01*
X39176838Y-57497241D01*
X39224068Y-57341300D01*
X39226516Y-57328677D01*
X39232751Y-57258816D01*
X39233000Y-57253221D01*
X39233000Y-57222115D01*
X39228525Y-57206876D01*
X39227135Y-57205671D01*
X39219452Y-57204000D01*
X38272115Y-57203999D01*
X38256876Y-57208474D01*
X38255671Y-57209864D01*
X38254000Y-57217547D01*
X38253999Y-57939885D01*
X37746000Y-57939885D01*
X37746001Y-57222115D01*
X37741526Y-57206876D01*
X37740136Y-57205671D01*
X37732453Y-57204000D01*
X36785115Y-57203999D01*
X36769876Y-57208474D01*
X36768671Y-57209864D01*
X36767000Y-57217547D01*
X36208500Y-57217547D01*
X36208500Y-56607115D01*
X36197036Y-56508785D01*
X36193870Y-56481630D01*
X36193870Y-56481629D01*
X36193022Y-56474358D01*
X36145989Y-56344782D01*
X36135184Y-56315016D01*
X36132687Y-56308137D01*
X36035731Y-56160254D01*
X35993201Y-56119965D01*
X35964519Y-56092794D01*
X35928821Y-56031424D01*
X35931969Y-55960498D01*
X35959699Y-55914668D01*
X36056321Y-55812671D01*
X36061357Y-55807355D01*
X36128441Y-55691863D01*
X36146499Y-55660774D01*
X36146500Y-55660773D01*
X36150175Y-55654445D01*
X36156070Y-55634984D01*
X36199558Y-55491395D01*
X36199558Y-55491394D01*
X36201433Y-55485204D01*
X36202008Y-55478763D01*
X36208251Y-55408815D01*
X36208251Y-55408809D01*
X36208500Y-55406022D01*
X36208500Y-54782115D01*
X36195115Y-54667313D01*
X36193870Y-54656630D01*
X36193870Y-54656629D01*
X36193022Y-54649358D01*
X36188109Y-54635821D01*
X36135184Y-54490016D01*
X36132687Y-54483137D01*
X36035731Y-54335254D01*
X35907355Y-54213643D01*
X35821214Y-54163608D01*
X35772356Y-54112097D01*
X35758500Y-54054654D01*
X35758500Y-53285860D01*
X35778502Y-53217739D01*
X35838116Y-53168708D01*
X35919643Y-53136429D01*
X36054197Y-53038671D01*
X36160212Y-52910521D01*
X36231026Y-52760033D01*
X36232511Y-52752250D01*
X36232512Y-52752246D01*
X36257386Y-52621852D01*
X36257386Y-52621849D01*
X36258500Y-52616011D01*
X36258500Y-52215422D01*
X36242655Y-52089995D01*
X36221844Y-52037432D01*
X36184347Y-51942726D01*
X36184346Y-51942724D01*
X36181429Y-51935357D01*
X36169845Y-51919412D01*
X36114907Y-51843797D01*
X36091048Y-51776929D01*
X36107129Y-51707777D01*
X36119759Y-51689420D01*
X36155159Y-51646630D01*
X36155162Y-51646626D01*
X36160212Y-51640521D01*
X36180563Y-51597274D01*
X36217363Y-51519069D01*
X36229177Y-51493962D01*
X36276279Y-51440841D01*
X36344624Y-51421618D01*
X36412512Y-51442397D01*
X36432280Y-51458515D01*
X36649595Y-51675830D01*
X36683621Y-51738142D01*
X36686500Y-51764925D01*
X36686500Y-53200000D01*
X36691727Y-53273079D01*
X36693631Y-53279562D01*
X36728657Y-53398851D01*
X36732904Y-53413316D01*
X36737775Y-53420895D01*
X36807051Y-53528691D01*
X36807053Y-53528694D01*
X36811923Y-53536271D01*
X36818733Y-53542172D01*
X36915569Y-53626082D01*
X36915572Y-53626084D01*
X36922381Y-53631984D01*
X36930579Y-53635728D01*
X36931184Y-53636004D01*
X37055330Y-53692700D01*
X37064245Y-53693982D01*
X37064246Y-53693982D01*
X37195552Y-53712861D01*
X37195559Y-53712862D01*
X37200000Y-53713500D01*
X37640501Y-53713500D01*
X37708622Y-53733502D01*
X37755115Y-53787158D01*
X37766501Y-53839500D01*
X37766501Y-53915500D01*
X37746499Y-53983621D01*
X37692843Y-54030114D01*
X37640501Y-54041500D01*
X37482115Y-54041500D01*
X37388779Y-54052382D01*
X37356630Y-54056130D01*
X37356629Y-54056130D01*
X37349358Y-54056978D01*
X37342480Y-54059474D01*
X37342478Y-54059475D01*
X37197507Y-54112097D01*
X37183137Y-54117313D01*
X37132921Y-54150236D01*
X37048033Y-54205891D01*
X37035254Y-54214269D01*
X36913643Y-54342645D01*
X36824825Y-54495555D01*
X36822704Y-54502559D01*
X36822702Y-54502563D01*
X36800197Y-54576871D01*
X36773567Y-54664796D01*
X36772992Y-54671236D01*
X36772992Y-54671237D01*
X36772312Y-54678863D01*
X36766500Y-54743978D01*
X36766500Y-55342885D01*
X36781978Y-55475642D01*
X36784474Y-55482520D01*
X36784475Y-55482522D01*
X36805234Y-55539712D01*
X36842313Y-55641863D01*
X36939269Y-55789746D01*
X36944580Y-55794777D01*
X36944584Y-55794782D01*
X37065737Y-55909550D01*
X37101436Y-55970919D01*
X37098289Y-56041846D01*
X37057295Y-56099811D01*
X37048172Y-56106394D01*
X37041694Y-56110641D01*
X37030543Y-56119965D01*
X36919079Y-56237629D01*
X36910364Y-56249279D01*
X36828961Y-56389422D01*
X36823162Y-56402759D01*
X36775932Y-56558700D01*
X36773484Y-56571323D01*
X36767249Y-56641184D01*
X36767000Y-56646779D01*
X36767000Y-56677885D01*
X36771475Y-56693124D01*
X36772865Y-56694329D01*
X36780548Y-56696000D01*
X37745998Y-56696001D01*
X37746004Y-56696000D01*
X39214885Y-56696001D01*
X39230124Y-56691526D01*
X39231329Y-56690136D01*
X39233000Y-56682453D01*
X39233000Y-56660778D01*
X39232576Y-56653477D01*
X39218383Y-56531746D01*
X39215037Y-56517591D01*
X39159737Y-56365240D01*
X39153227Y-56352241D01*
X39064359Y-56216695D01*
X39055035Y-56205543D01*
X38934206Y-56091081D01*
X38898508Y-56029712D01*
X38901655Y-55958785D01*
X38942649Y-55900819D01*
X38951773Y-55894237D01*
X38958624Y-55889745D01*
X38958625Y-55889744D01*
X38964746Y-55885731D01*
X39086357Y-55757355D01*
X39175175Y-55604445D01*
X39200556Y-55520645D01*
X39224558Y-55441395D01*
X39224558Y-55441394D01*
X39226433Y-55435204D01*
X39228788Y-55408815D01*
X39233251Y-55358815D01*
X39233251Y-55358809D01*
X39233500Y-55356022D01*
X39233500Y-54757115D01*
X39219438Y-54636500D01*
X39218870Y-54631630D01*
X39218870Y-54631629D01*
X39218022Y-54624358D01*
X39169259Y-54490016D01*
X39160184Y-54465016D01*
X39157687Y-54458137D01*
X39081967Y-54342645D01*
X39064743Y-54316373D01*
X39064742Y-54316372D01*
X39060731Y-54310254D01*
X39061069Y-54310033D01*
X39034486Y-54249005D01*
X39033500Y-54233272D01*
X39033500Y-53839500D01*
X39053502Y-53771379D01*
X39107158Y-53724886D01*
X39159500Y-53713500D01*
X39600000Y-53713500D01*
X39673079Y-53708273D01*
X39751165Y-53685345D01*
X39804670Y-53669635D01*
X39804672Y-53669634D01*
X39813316Y-53667096D01*
X39877135Y-53626082D01*
X39928691Y-53592949D01*
X39928694Y-53592947D01*
X39936271Y-53588077D01*
X39963293Y-53556892D01*
X40026082Y-53484431D01*
X40026084Y-53484428D01*
X40031984Y-53477619D01*
X40092700Y-53344670D01*
X40095323Y-53326429D01*
X40112861Y-53204448D01*
X40112862Y-53204441D01*
X40113500Y-53200000D01*
X40113500Y-50800000D01*
X40108273Y-50726921D01*
X40067096Y-50586684D01*
X40023327Y-50518579D01*
X39992949Y-50471309D01*
X39992947Y-50471306D01*
X39988077Y-50463729D01*
X39966944Y-50445417D01*
X39884431Y-50373918D01*
X39884428Y-50373916D01*
X39877619Y-50368016D01*
X39869421Y-50364272D01*
X39752864Y-50311042D01*
X39752863Y-50311042D01*
X39744670Y-50307300D01*
X39735755Y-50306018D01*
X39735754Y-50306018D01*
X39604448Y-50287139D01*
X39604441Y-50287138D01*
X39600000Y-50286500D01*
X38164924Y-50286500D01*
X38096803Y-50266498D01*
X38075829Y-50249595D01*
X36944243Y-49118010D01*
X36942058Y-49115825D01*
X36828805Y-49022797D01*
X36823382Y-49019889D01*
X36659908Y-48932236D01*
X36659905Y-48932235D01*
X36654482Y-48929327D01*
X36465326Y-48871496D01*
X36268537Y-48851506D01*
X36262402Y-48852086D01*
X36259005Y-48852074D01*
X36239458Y-48849000D01*
X35129002Y-48848999D01*
X35128996Y-48849000D01*
X33518253Y-48848999D01*
X33504376Y-48853074D01*
X33502339Y-48866425D01*
X33506835Y-48902015D01*
X33510746Y-48917248D01*
X33566091Y-49057033D01*
X33573668Y-49070815D01*
X33635419Y-49155808D01*
X33659278Y-49222676D01*
X33643197Y-49291828D01*
X33630568Y-49310184D01*
X33626571Y-49315016D01*
X33589788Y-49359479D01*
X33518974Y-49509967D01*
X33517489Y-49517750D01*
X33517488Y-49517754D01*
X33499743Y-49610778D01*
X33491500Y-49653989D01*
X33491500Y-50054578D01*
X33507345Y-50180005D01*
X33510262Y-50187371D01*
X33510263Y-50187377D01*
X33516891Y-50204117D01*
X33523370Y-50274818D01*
X33490597Y-50337797D01*
X33428977Y-50373061D01*
X33399739Y-50376500D01*
X32930987Y-50376500D01*
X32912036Y-50375067D01*
X32898879Y-50373065D01*
X32898876Y-50373065D01*
X32891646Y-50371965D01*
X32884354Y-50372558D01*
X32884351Y-50372558D01*
X32840993Y-50376085D01*
X32830778Y-50376500D01*
X32822114Y-50376500D01*
X32818480Y-50376924D01*
X32818474Y-50376924D01*
X32808533Y-50378083D01*
X32792485Y-50379954D01*
X32788158Y-50380382D01*
X32758994Y-50382754D01*
X32722692Y-50385707D01*
X32722688Y-50385708D01*
X32715395Y-50386301D01*
X32708434Y-50388556D01*
X32702503Y-50389741D01*
X32696627Y-50391130D01*
X32689357Y-50391978D01*
X32620722Y-50416891D01*
X32616618Y-50418299D01*
X32601865Y-50423079D01*
X32554134Y-50438541D01*
X32554129Y-50438543D01*
X32547169Y-50440798D01*
X32540911Y-50444596D01*
X32535437Y-50447102D01*
X32530020Y-50449814D01*
X32523136Y-50452313D01*
X32517015Y-50456326D01*
X32517013Y-50456327D01*
X32462089Y-50492336D01*
X32458372Y-50494681D01*
X32400788Y-50529625D01*
X32395993Y-50532535D01*
X32391790Y-50536247D01*
X32386690Y-50540751D01*
X32384108Y-50542969D01*
X32381369Y-50545259D01*
X32375253Y-50549269D01*
X32370223Y-50554579D01*
X32326140Y-50601114D01*
X32323763Y-50603556D01*
X31510324Y-51416996D01*
X31495910Y-51429383D01*
X31479294Y-51441611D01*
X31474551Y-51447194D01*
X31446378Y-51480356D01*
X31439448Y-51487872D01*
X31433335Y-51493985D01*
X31431058Y-51496863D01*
X31414864Y-51517331D01*
X31412077Y-51520731D01*
X31369537Y-51570804D01*
X31369535Y-51570807D01*
X31364803Y-51576377D01*
X31361477Y-51582891D01*
X31358127Y-51587914D01*
X31354945Y-51593065D01*
X31350406Y-51598803D01*
X31347310Y-51605427D01*
X31347309Y-51605429D01*
X31319509Y-51664912D01*
X31317577Y-51668864D01*
X31284385Y-51733866D01*
X31282646Y-51740973D01*
X31280544Y-51746625D01*
X31278632Y-51752374D01*
X31275534Y-51759002D01*
X31262661Y-51820890D01*
X31260670Y-51830462D01*
X31259706Y-51834722D01*
X31248364Y-51881074D01*
X31212744Y-51942488D01*
X31149575Y-51974895D01*
X31078913Y-51968006D01*
X31024039Y-51925185D01*
X30964907Y-51843796D01*
X30941048Y-51776929D01*
X30957129Y-51707777D01*
X30969759Y-51689420D01*
X31005159Y-51646630D01*
X31005162Y-51646626D01*
X31010212Y-51640521D01*
X31081026Y-51490033D01*
X31082511Y-51482250D01*
X31082512Y-51482246D01*
X31107386Y-51351852D01*
X31107386Y-51351849D01*
X31108500Y-51346011D01*
X31108500Y-50945422D01*
X31099328Y-50872819D01*
X31093649Y-50827860D01*
X31093648Y-50827857D01*
X31092655Y-50819995D01*
X31085632Y-50802257D01*
X31034347Y-50672726D01*
X31034346Y-50672724D01*
X31031429Y-50665357D01*
X31023612Y-50654598D01*
X30999754Y-50587730D01*
X31015836Y-50518579D01*
X31060183Y-50472819D01*
X31064216Y-50470372D01*
X31064219Y-50470370D01*
X31069006Y-50467465D01*
X31073209Y-50463753D01*
X31073213Y-50463750D01*
X31078292Y-50459265D01*
X31080872Y-50457047D01*
X31083627Y-50454744D01*
X31089747Y-50450731D01*
X31138895Y-50398849D01*
X31141273Y-50396407D01*
X33289300Y-48248381D01*
X33351612Y-48214355D01*
X33422428Y-48219420D01*
X33479263Y-48261967D01*
X33503802Y-48325262D01*
X33504872Y-48336246D01*
X33519793Y-48341000D01*
X34602885Y-48341001D01*
X34618124Y-48336526D01*
X34619329Y-48335136D01*
X34621000Y-48327453D01*
X34621000Y-48322885D01*
X35128999Y-48322885D01*
X35133474Y-48338124D01*
X35134864Y-48339329D01*
X35142547Y-48341000D01*
X36231747Y-48341001D01*
X36245624Y-48336926D01*
X36247661Y-48323575D01*
X36243165Y-48287985D01*
X36239254Y-48272752D01*
X36183909Y-48132967D01*
X36176332Y-48119185D01*
X36087966Y-47997560D01*
X36077198Y-47986093D01*
X35961361Y-47890265D01*
X35948079Y-47881836D01*
X35812055Y-47817828D01*
X35797087Y-47812965D01*
X35666824Y-47788115D01*
X35655039Y-47787001D01*
X35147115Y-47787001D01*
X35131876Y-47791476D01*
X35130671Y-47792866D01*
X35129000Y-47800549D01*
X35128999Y-48322885D01*
X34621000Y-48322885D01*
X34621001Y-47805115D01*
X34616526Y-47789876D01*
X34615136Y-47788671D01*
X34607453Y-47787000D01*
X34114380Y-47787000D01*
X34106492Y-47787496D01*
X34063777Y-47792893D01*
X33993686Y-47781587D01*
X33940835Y-47734182D01*
X33922002Y-47665729D01*
X33943168Y-47597961D01*
X33958889Y-47578792D01*
X33966330Y-47571351D01*
X36622480Y-47571351D01*
X36630207Y-47633836D01*
X36632094Y-47643194D01*
X36700032Y-47884078D01*
X36703314Y-47893048D01*
X36806906Y-48120888D01*
X36811506Y-48129253D01*
X36948367Y-48338797D01*
X36954179Y-48346373D01*
X37121174Y-48532819D01*
X37128045Y-48539408D01*
X37321321Y-48698449D01*
X37329131Y-48703938D01*
X37544223Y-48831905D01*
X37552780Y-48836152D01*
X37784751Y-48930111D01*
X37793853Y-48933015D01*
X38037375Y-48990806D01*
X38039810Y-48991191D01*
X38052992Y-48988458D01*
X38056000Y-48976909D01*
X38056000Y-48975658D01*
X38563999Y-48975658D01*
X38567972Y-48989189D01*
X38577931Y-48990621D01*
X38809030Y-48938328D01*
X38818137Y-48935526D01*
X39051101Y-48843994D01*
X39059687Y-48839844D01*
X39276117Y-48714131D01*
X39283977Y-48708729D01*
X39478899Y-48551727D01*
X39485865Y-48545185D01*
X39654786Y-48360518D01*
X39660681Y-48352999D01*
X39799729Y-48144899D01*
X39804416Y-48136581D01*
X39910392Y-47909832D01*
X39913760Y-47900920D01*
X39984221Y-47660741D01*
X39986204Y-47651413D01*
X39996876Y-47571955D01*
X39994710Y-47557821D01*
X39981470Y-47554000D01*
X38582115Y-47553999D01*
X38566876Y-47558474D01*
X38565671Y-47559864D01*
X38564000Y-47567547D01*
X38563999Y-48975658D01*
X38056000Y-48975658D01*
X38056001Y-47572115D01*
X38051526Y-47556876D01*
X38050136Y-47555671D01*
X38042453Y-47554000D01*
X36638449Y-47553999D01*
X36624520Y-47558089D01*
X36622480Y-47571351D01*
X33966330Y-47571351D01*
X34439677Y-47098004D01*
X34454090Y-47085617D01*
X34464807Y-47077730D01*
X34470706Y-47073389D01*
X34503618Y-47034649D01*
X34509584Y-47028178D01*
X36623326Y-47028178D01*
X36624717Y-47041383D01*
X36639406Y-47046000D01*
X38037885Y-47046001D01*
X38053124Y-47041526D01*
X38054329Y-47040136D01*
X38056000Y-47032453D01*
X38056000Y-47027885D01*
X38563999Y-47027885D01*
X38568474Y-47043124D01*
X38569864Y-47044329D01*
X38577547Y-47046000D01*
X39985564Y-47046001D01*
X40000407Y-47041643D01*
X40001735Y-47034183D01*
X39945695Y-46792407D01*
X39942839Y-46783295D01*
X39850096Y-46550834D01*
X39845893Y-46542254D01*
X39719056Y-46326497D01*
X39713605Y-46318654D01*
X39555588Y-46124561D01*
X39549019Y-46117638D01*
X39363456Y-45949674D01*
X39355915Y-45943825D01*
X39147086Y-45805866D01*
X39138749Y-45801225D01*
X38911456Y-45696442D01*
X38902502Y-45693112D01*
X38661968Y-45623912D01*
X38652635Y-45621980D01*
X38581968Y-45612865D01*
X38567736Y-45615122D01*
X38564000Y-45628198D01*
X38563999Y-47027885D01*
X38056000Y-47027885D01*
X38056001Y-45628448D01*
X38052228Y-45615597D01*
X38037131Y-45613677D01*
X37888703Y-45639982D01*
X37879463Y-45642355D01*
X37642455Y-45722809D01*
X37633684Y-45726550D01*
X37411577Y-45841925D01*
X37403455Y-45846961D01*
X37201358Y-45994603D01*
X37194104Y-46000798D01*
X37016660Y-46177316D01*
X37010422Y-46184542D01*
X36861726Y-46385861D01*
X36856649Y-46393954D01*
X36740114Y-46615450D01*
X36736325Y-46624208D01*
X36654634Y-46860785D01*
X36652210Y-46870023D01*
X36623326Y-47028178D01*
X34509584Y-47028178D01*
X34510548Y-47027133D01*
X34516665Y-47021016D01*
X34535184Y-46997608D01*
X34537923Y-46994269D01*
X34585197Y-46938624D01*
X34588527Y-46932102D01*
X34591858Y-46927108D01*
X34595049Y-46921941D01*
X34599593Y-46916198D01*
X34630485Y-46850103D01*
X34632410Y-46846163D01*
X34644685Y-46822124D01*
X34665615Y-46781135D01*
X34667354Y-46774028D01*
X34669459Y-46768368D01*
X34671370Y-46762623D01*
X34674466Y-46755999D01*
X34689330Y-46684537D01*
X34690300Y-46680253D01*
X34701439Y-46634731D01*
X34707645Y-46609370D01*
X34708414Y-46596969D01*
X34708671Y-46593573D01*
X34708986Y-46590038D01*
X34710477Y-46582872D01*
X34708546Y-46511521D01*
X34708500Y-46508113D01*
X34708500Y-43224431D01*
X41960921Y-43224431D01*
X41964614Y-43229708D01*
X42172144Y-43356883D01*
X42180938Y-43361364D01*
X42409257Y-43455937D01*
X42418642Y-43458986D01*
X42658947Y-43516679D01*
X42668694Y-43518222D01*
X42915070Y-43537612D01*
X42924930Y-43537612D01*
X43171306Y-43518222D01*
X43181053Y-43516679D01*
X43421358Y-43458986D01*
X43430743Y-43455937D01*
X43659062Y-43361364D01*
X43667856Y-43356883D01*
X43873888Y-43230626D01*
X43877933Y-43224431D01*
X47040921Y-43224431D01*
X47044614Y-43229708D01*
X47252144Y-43356883D01*
X47260938Y-43361364D01*
X47489257Y-43455937D01*
X47498642Y-43458986D01*
X47738947Y-43516679D01*
X47748694Y-43518222D01*
X47995070Y-43537612D01*
X48004930Y-43537612D01*
X48251306Y-43518222D01*
X48261053Y-43516679D01*
X48501358Y-43458986D01*
X48510743Y-43455937D01*
X48739062Y-43361364D01*
X48747856Y-43356883D01*
X48953888Y-43230626D01*
X48959152Y-43222566D01*
X48953144Y-43212354D01*
X48012812Y-42272022D01*
X47998868Y-42264408D01*
X47997035Y-42264539D01*
X47990420Y-42268790D01*
X47048311Y-43210899D01*
X47040921Y-43224431D01*
X43877933Y-43224431D01*
X43879152Y-43222566D01*
X43873144Y-43212354D01*
X42932812Y-42272022D01*
X42918868Y-42264408D01*
X42917035Y-42264539D01*
X42910420Y-42268790D01*
X41968311Y-43210899D01*
X41960921Y-43224431D01*
X34708500Y-43224431D01*
X34708500Y-42091139D01*
X34728502Y-42023018D01*
X34743027Y-42004486D01*
X34776205Y-41969463D01*
X34811357Y-41932355D01*
X34833013Y-41895070D01*
X41282388Y-41895070D01*
X41282388Y-41904930D01*
X41301778Y-42151306D01*
X41303321Y-42161053D01*
X41361014Y-42401358D01*
X41364063Y-42410743D01*
X41458636Y-42639062D01*
X41463117Y-42647856D01*
X41589374Y-42853888D01*
X41597434Y-42859152D01*
X41607646Y-42853144D01*
X42547978Y-41912812D01*
X42554355Y-41901132D01*
X43284408Y-41901132D01*
X43284539Y-41902965D01*
X43288790Y-41909580D01*
X44230899Y-42851689D01*
X44244431Y-42859079D01*
X44249708Y-42855386D01*
X44376883Y-42647856D01*
X44381364Y-42639062D01*
X44475937Y-42410743D01*
X44478986Y-42401358D01*
X44536679Y-42161053D01*
X44538222Y-42151306D01*
X44557612Y-41904930D01*
X44557612Y-41895070D01*
X46362388Y-41895070D01*
X46362388Y-41904930D01*
X46381778Y-42151306D01*
X46383321Y-42161053D01*
X46441014Y-42401358D01*
X46444063Y-42410743D01*
X46538636Y-42639062D01*
X46543117Y-42647856D01*
X46669374Y-42853888D01*
X46677434Y-42859152D01*
X46687646Y-42853144D01*
X47627978Y-41912812D01*
X47634355Y-41901132D01*
X48364408Y-41901132D01*
X48364539Y-41902965D01*
X48368790Y-41909580D01*
X49310899Y-42851689D01*
X49324431Y-42859079D01*
X49329708Y-42855386D01*
X49456883Y-42647856D01*
X49461364Y-42639062D01*
X49555937Y-42410743D01*
X49558986Y-42401358D01*
X49616679Y-42161053D01*
X49618222Y-42151306D01*
X49637612Y-41904930D01*
X49637612Y-41895070D01*
X49618222Y-41648694D01*
X49616679Y-41638947D01*
X49558986Y-41398642D01*
X49555937Y-41389257D01*
X49461364Y-41160938D01*
X49456883Y-41152144D01*
X49330626Y-40946112D01*
X49322566Y-40940848D01*
X49312354Y-40946856D01*
X48372022Y-41887188D01*
X48364408Y-41901132D01*
X47634355Y-41901132D01*
X47635592Y-41898868D01*
X47635461Y-41897035D01*
X47631210Y-41890420D01*
X46689101Y-40948311D01*
X46675569Y-40940921D01*
X46670292Y-40944614D01*
X46543117Y-41152144D01*
X46538636Y-41160938D01*
X46444063Y-41389257D01*
X46441014Y-41398642D01*
X46383321Y-41638947D01*
X46381778Y-41648694D01*
X46362388Y-41895070D01*
X44557612Y-41895070D01*
X44538222Y-41648694D01*
X44536679Y-41638947D01*
X44478986Y-41398642D01*
X44475937Y-41389257D01*
X44381364Y-41160938D01*
X44376883Y-41152144D01*
X44250626Y-40946112D01*
X44242566Y-40940848D01*
X44232354Y-40946856D01*
X43292022Y-41887188D01*
X43284408Y-41901132D01*
X42554355Y-41901132D01*
X42555592Y-41898868D01*
X42555461Y-41897035D01*
X42551210Y-41890420D01*
X41609101Y-40948311D01*
X41595569Y-40940921D01*
X41590292Y-40944614D01*
X41463117Y-41152144D01*
X41458636Y-41160938D01*
X41364063Y-41389257D01*
X41361014Y-41398642D01*
X41303321Y-41638947D01*
X41301778Y-41648694D01*
X41282388Y-41895070D01*
X34833013Y-41895070D01*
X34900174Y-41779445D01*
X34951432Y-41610204D01*
X34958499Y-41531022D01*
X34958500Y-40482115D01*
X34943022Y-40349358D01*
X34939994Y-40341014D01*
X34885184Y-40190016D01*
X34882687Y-40183137D01*
X34805753Y-40065793D01*
X34789743Y-40041373D01*
X34789742Y-40041372D01*
X34785731Y-40035254D01*
X34747846Y-39999365D01*
X34712149Y-39937996D01*
X34708500Y-39907893D01*
X34708500Y-38015986D01*
X34709933Y-37997035D01*
X34711935Y-37983878D01*
X34711935Y-37983875D01*
X34713035Y-37976645D01*
X34709638Y-37934875D01*
X34708915Y-37925993D01*
X34708500Y-37915778D01*
X34708500Y-37907114D01*
X34705045Y-37877480D01*
X34704616Y-37873140D01*
X34704382Y-37870255D01*
X34701384Y-37833402D01*
X34699293Y-37807692D01*
X34699292Y-37807688D01*
X34698699Y-37800395D01*
X34696444Y-37793434D01*
X34695259Y-37787503D01*
X34693870Y-37781627D01*
X34693022Y-37774357D01*
X34668109Y-37705722D01*
X34666697Y-37701608D01*
X34666441Y-37700816D01*
X34652096Y-37656536D01*
X34646459Y-37639134D01*
X34646457Y-37639129D01*
X34644202Y-37632169D01*
X34640404Y-37625911D01*
X34637898Y-37620437D01*
X34635186Y-37615020D01*
X34632687Y-37608136D01*
X34600514Y-37559062D01*
X34592664Y-37547089D01*
X34590319Y-37543372D01*
X34555375Y-37485788D01*
X34555374Y-37485786D01*
X34552465Y-37480993D01*
X34548756Y-37476793D01*
X34548752Y-37476788D01*
X34544253Y-37471695D01*
X34542027Y-37469106D01*
X34539749Y-37466381D01*
X34535731Y-37460253D01*
X34483893Y-37411147D01*
X34481450Y-37408769D01*
X34400405Y-37327724D01*
X34366379Y-37265412D01*
X34363500Y-37238629D01*
X34363500Y-36815070D01*
X41282388Y-36815070D01*
X41282388Y-36824930D01*
X41301778Y-37071306D01*
X41303321Y-37081053D01*
X41361014Y-37321358D01*
X41364063Y-37330743D01*
X41458636Y-37559062D01*
X41463117Y-37567856D01*
X41589374Y-37773888D01*
X41597434Y-37779152D01*
X41607646Y-37773144D01*
X42547978Y-36832812D01*
X42554355Y-36821132D01*
X43284408Y-36821132D01*
X43284539Y-36822965D01*
X43288790Y-36829580D01*
X44230899Y-37771689D01*
X44244431Y-37779079D01*
X44249708Y-37775386D01*
X44376883Y-37567856D01*
X44381364Y-37559062D01*
X44475937Y-37330743D01*
X44478986Y-37321358D01*
X44536679Y-37081053D01*
X44538222Y-37071306D01*
X44557612Y-36824930D01*
X44557612Y-36815070D01*
X44538222Y-36568694D01*
X44536679Y-36558947D01*
X44478986Y-36318642D01*
X44475937Y-36309257D01*
X44381364Y-36080938D01*
X44376883Y-36072144D01*
X44250626Y-35866112D01*
X44242566Y-35860848D01*
X44232354Y-35866856D01*
X43292022Y-36807188D01*
X43284408Y-36821132D01*
X42554355Y-36821132D01*
X42555592Y-36818868D01*
X42555461Y-36817035D01*
X42551210Y-36810420D01*
X41609101Y-35868311D01*
X41595569Y-35860921D01*
X41590292Y-35864614D01*
X41463117Y-36072144D01*
X41458636Y-36080938D01*
X41364063Y-36309257D01*
X41361014Y-36318642D01*
X41303321Y-36558947D01*
X41301778Y-36568694D01*
X41282388Y-36815070D01*
X34363500Y-36815070D01*
X34363500Y-36204495D01*
X37637000Y-36204495D01*
X37637000Y-36777885D01*
X37641475Y-36793124D01*
X37642865Y-36794329D01*
X37650548Y-36796000D01*
X38727885Y-36796000D01*
X38743124Y-36791525D01*
X38744329Y-36790135D01*
X38746000Y-36782452D01*
X38746000Y-35705115D01*
X38744659Y-35700548D01*
X39254000Y-35700548D01*
X39254000Y-36777885D01*
X39258475Y-36793124D01*
X39259865Y-36794329D01*
X39267548Y-36796000D01*
X40344885Y-36796000D01*
X40360124Y-36791525D01*
X40361329Y-36790135D01*
X40363000Y-36782452D01*
X40363000Y-36202257D01*
X40362839Y-36197750D01*
X40358260Y-36133731D01*
X40355874Y-36120509D01*
X40319181Y-35995542D01*
X40311767Y-35979308D01*
X40242574Y-35871640D01*
X40230888Y-35858153D01*
X40134160Y-35774338D01*
X40119152Y-35764693D01*
X40002725Y-35711523D01*
X39985612Y-35706498D01*
X39854446Y-35687639D01*
X39845505Y-35687000D01*
X39272115Y-35687000D01*
X39256876Y-35691475D01*
X39255671Y-35692865D01*
X39254000Y-35700548D01*
X38744659Y-35700548D01*
X38741525Y-35689876D01*
X38740135Y-35688671D01*
X38732452Y-35687000D01*
X38152257Y-35687000D01*
X38147750Y-35687161D01*
X38083731Y-35691740D01*
X38070509Y-35694126D01*
X37945542Y-35730819D01*
X37929308Y-35738233D01*
X37821640Y-35807426D01*
X37808153Y-35819112D01*
X37724338Y-35915840D01*
X37714693Y-35930848D01*
X37661523Y-36047275D01*
X37656498Y-36064388D01*
X37637639Y-36195554D01*
X37637000Y-36204495D01*
X34363500Y-36204495D01*
X34363500Y-36150000D01*
X34358273Y-36076921D01*
X34330704Y-35983030D01*
X34319635Y-35945330D01*
X34319634Y-35945328D01*
X34317096Y-35936684D01*
X34275771Y-35872381D01*
X34242949Y-35821309D01*
X34242947Y-35821306D01*
X34238077Y-35813729D01*
X34192618Y-35774338D01*
X34134431Y-35723918D01*
X34134428Y-35723916D01*
X34127619Y-35718016D01*
X34119421Y-35714272D01*
X34002864Y-35661042D01*
X34002863Y-35661042D01*
X33994670Y-35657300D01*
X33985755Y-35656018D01*
X33985754Y-35656018D01*
X33854448Y-35637139D01*
X33854441Y-35637138D01*
X33850000Y-35636500D01*
X32150000Y-35636500D01*
X32076921Y-35641727D01*
X32023884Y-35657300D01*
X31945330Y-35680365D01*
X31945328Y-35680366D01*
X31936684Y-35682904D01*
X31916350Y-35695972D01*
X31821309Y-35757051D01*
X31821306Y-35757053D01*
X31813729Y-35761923D01*
X31807828Y-35768733D01*
X31723918Y-35865569D01*
X31723916Y-35865572D01*
X31718016Y-35872381D01*
X31657300Y-36005330D01*
X31656160Y-36013259D01*
X31618051Y-36072560D01*
X31553471Y-36102054D01*
X31483197Y-36091952D01*
X31444367Y-36064309D01*
X31366830Y-35983030D01*
X31358873Y-35975990D01*
X31182523Y-35844782D01*
X31173486Y-35839178D01*
X30977550Y-35739559D01*
X30967699Y-35735559D01*
X30757778Y-35670378D01*
X30747396Y-35668095D01*
X30731959Y-35666049D01*
X30717792Y-35668246D01*
X30714000Y-35681430D01*
X30713999Y-36745998D01*
X30714000Y-36746004D01*
X30713999Y-38319941D01*
X30718150Y-38334079D01*
X30728795Y-38335774D01*
X30732201Y-38335094D01*
X30943333Y-38273954D01*
X30953259Y-38270143D01*
X31151065Y-38174307D01*
X31160212Y-38168876D01*
X31339041Y-38041083D01*
X31347142Y-38034188D01*
X31449327Y-37931107D01*
X31511491Y-37896811D01*
X31582328Y-37901566D01*
X31639349Y-37943864D01*
X31659707Y-37984314D01*
X31682904Y-38063316D01*
X31697527Y-38086069D01*
X31757051Y-38178691D01*
X31757053Y-38178694D01*
X31761923Y-38186271D01*
X31768733Y-38192172D01*
X31865569Y-38276082D01*
X31865572Y-38276084D01*
X31872381Y-38281984D01*
X31880579Y-38285728D01*
X31994960Y-38337964D01*
X32005330Y-38342700D01*
X32014245Y-38343982D01*
X32014246Y-38343982D01*
X32145552Y-38362861D01*
X32145559Y-38362862D01*
X32150000Y-38363500D01*
X33065500Y-38363500D01*
X33133621Y-38383502D01*
X33180114Y-38437158D01*
X33191500Y-38489500D01*
X33191501Y-39908860D01*
X33171499Y-39976981D01*
X33156974Y-39995512D01*
X33090450Y-40065737D01*
X33029081Y-40101436D01*
X32958155Y-40098289D01*
X32900189Y-40057295D01*
X32893606Y-40048172D01*
X32889362Y-40041699D01*
X32880029Y-40030537D01*
X32762372Y-39919079D01*
X32750725Y-39910365D01*
X32610571Y-39828957D01*
X32597246Y-39823163D01*
X32441300Y-39775932D01*
X32428677Y-39773484D01*
X32358816Y-39767249D01*
X32353221Y-39767000D01*
X32322115Y-39767000D01*
X32306876Y-39771475D01*
X32305671Y-39772865D01*
X32304000Y-39780548D01*
X32303999Y-40745998D01*
X32304000Y-40746004D01*
X32303999Y-42214885D01*
X32308474Y-42230124D01*
X32309864Y-42231329D01*
X32317547Y-42233000D01*
X32339222Y-42233000D01*
X32346523Y-42232576D01*
X32468254Y-42218383D01*
X32482409Y-42215037D01*
X32634760Y-42159737D01*
X32647759Y-42153227D01*
X32783305Y-42064359D01*
X32794457Y-42055035D01*
X32908919Y-41934206D01*
X32970288Y-41898508D01*
X33041215Y-41901655D01*
X33099181Y-41942649D01*
X33105763Y-41951773D01*
X33105800Y-41951829D01*
X33114269Y-41964746D01*
X33119581Y-41969778D01*
X33152153Y-42000634D01*
X33187851Y-42062004D01*
X33191500Y-42092107D01*
X33191500Y-43189895D01*
X33171498Y-43258016D01*
X33117842Y-43304509D01*
X33047568Y-43314613D01*
X32978847Y-43281368D01*
X32972607Y-43275456D01*
X32907355Y-43213643D01*
X32754445Y-43124826D01*
X32585204Y-43073568D01*
X32578764Y-43072993D01*
X32578763Y-43072993D01*
X32508815Y-43066750D01*
X32508809Y-43066750D01*
X32506022Y-43066501D01*
X32073085Y-43066501D01*
X31510778Y-43066500D01*
X31507115Y-43066500D01*
X31430153Y-43075473D01*
X31407174Y-43078152D01*
X31392583Y-43079000D01*
X30621804Y-43079000D01*
X30597972Y-43075473D01*
X30597739Y-43076672D01*
X30591390Y-43075441D01*
X30585204Y-43073567D01*
X30578768Y-43072993D01*
X30578765Y-43072992D01*
X30508815Y-43066749D01*
X30508809Y-43066749D01*
X30506022Y-43066500D01*
X29507115Y-43066500D01*
X29411895Y-43077602D01*
X29381630Y-43081130D01*
X29381629Y-43081130D01*
X29374358Y-43081978D01*
X29208136Y-43142313D01*
X29060253Y-43239269D01*
X29055221Y-43244581D01*
X29025973Y-43275456D01*
X28964604Y-43311154D01*
X28893677Y-43308007D01*
X28835711Y-43267013D01*
X28809110Y-43201188D01*
X28808500Y-43188803D01*
X28808500Y-42091140D01*
X28828502Y-42023019D01*
X28843027Y-42004488D01*
X28909550Y-41934264D01*
X28970919Y-41898565D01*
X29041845Y-41901712D01*
X29099811Y-41942706D01*
X29106394Y-41951829D01*
X29110641Y-41958307D01*
X29119965Y-41969458D01*
X29237629Y-42080922D01*
X29249276Y-42089635D01*
X29389429Y-42171043D01*
X29402754Y-42176837D01*
X29558700Y-42224068D01*
X29571323Y-42226516D01*
X29641184Y-42232751D01*
X29646779Y-42233000D01*
X29677885Y-42233000D01*
X29693124Y-42228525D01*
X29694329Y-42227135D01*
X29696000Y-42219452D01*
X29696000Y-39785115D01*
X29694659Y-39780548D01*
X30204000Y-39780548D01*
X30204000Y-42214885D01*
X30208475Y-42230124D01*
X30209865Y-42231329D01*
X30217548Y-42233000D01*
X30239223Y-42233000D01*
X30246524Y-42232576D01*
X30368255Y-42218383D01*
X30382410Y-42215037D01*
X30534761Y-42159737D01*
X30547760Y-42153227D01*
X30683306Y-42064359D01*
X30694458Y-42055035D01*
X30805922Y-41937371D01*
X30814638Y-41925721D01*
X30890143Y-41795729D01*
X30941654Y-41746870D01*
X31011402Y-41733616D01*
X31077244Y-41760176D01*
X31109287Y-41804562D01*
X31111984Y-41803212D01*
X31121773Y-41822759D01*
X31210638Y-41958300D01*
X31219971Y-41969463D01*
X31337628Y-42080921D01*
X31349275Y-42089635D01*
X31489429Y-42171043D01*
X31502754Y-42176837D01*
X31658700Y-42224068D01*
X31671323Y-42226516D01*
X31741184Y-42232751D01*
X31746779Y-42233000D01*
X31777885Y-42233000D01*
X31793124Y-42228525D01*
X31794329Y-42227135D01*
X31796000Y-42219452D01*
X31796001Y-41254002D01*
X31796000Y-41253996D01*
X31796001Y-39785115D01*
X31791526Y-39769876D01*
X31790136Y-39768671D01*
X31782453Y-39767000D01*
X31760778Y-39767000D01*
X31753477Y-39767424D01*
X31631746Y-39781617D01*
X31617591Y-39784963D01*
X31465240Y-39840263D01*
X31452241Y-39846773D01*
X31316695Y-39935641D01*
X31305543Y-39944965D01*
X31194079Y-40062629D01*
X31185366Y-40074276D01*
X31109857Y-40204273D01*
X31058346Y-40253131D01*
X30988597Y-40266385D01*
X30922756Y-40239825D01*
X30890738Y-40195424D01*
X30888016Y-40196787D01*
X30878227Y-40177240D01*
X30789359Y-40041694D01*
X30780035Y-40030542D01*
X30662371Y-39919078D01*
X30650724Y-39910365D01*
X30510571Y-39828957D01*
X30497246Y-39823163D01*
X30341300Y-39775932D01*
X30328677Y-39773484D01*
X30258816Y-39767249D01*
X30253221Y-39767000D01*
X30222115Y-39767000D01*
X30206876Y-39771475D01*
X30205671Y-39772865D01*
X30204000Y-39780548D01*
X29694659Y-39780548D01*
X29691525Y-39769876D01*
X29690135Y-39768671D01*
X29682452Y-39767000D01*
X29660777Y-39767000D01*
X29653476Y-39767424D01*
X29531745Y-39781617D01*
X29517590Y-39784963D01*
X29365239Y-39840263D01*
X29352240Y-39846773D01*
X29216694Y-39935641D01*
X29205542Y-39944965D01*
X29091081Y-40065793D01*
X29029712Y-40101491D01*
X28958785Y-40098344D01*
X28900819Y-40057350D01*
X28894237Y-40048226D01*
X28889745Y-40041375D01*
X28889743Y-40041373D01*
X28885731Y-40035253D01*
X28847847Y-39999365D01*
X28812149Y-39937995D01*
X28808500Y-39907892D01*
X28808500Y-38085395D01*
X28828502Y-38017274D01*
X28845017Y-37996689D01*
X28853779Y-37987851D01*
X28966030Y-37874617D01*
X29002635Y-37822437D01*
X29087953Y-37700816D01*
X29143449Y-37656536D01*
X29214075Y-37649289D01*
X29277407Y-37681375D01*
X29301781Y-37712958D01*
X29319550Y-37745617D01*
X29325402Y-37754491D01*
X29461486Y-37927113D01*
X29468750Y-37934875D01*
X29631967Y-38082094D01*
X29640444Y-38088528D01*
X29826122Y-38206136D01*
X29835567Y-38211053D01*
X30038406Y-38295694D01*
X30048545Y-38298950D01*
X30188345Y-38331096D01*
X30202422Y-38330257D01*
X30206000Y-38320999D01*
X30206001Y-37254002D01*
X30206000Y-37253996D01*
X30206001Y-35683716D01*
X30202028Y-35670185D01*
X30191421Y-35668660D01*
X30073555Y-35693391D01*
X30063358Y-35696451D01*
X29858932Y-35777182D01*
X29849396Y-35781916D01*
X29661486Y-35895942D01*
X29652896Y-35902206D01*
X29486884Y-36046264D01*
X29479464Y-36053895D01*
X29340100Y-36223860D01*
X29334079Y-36232622D01*
X29300427Y-36291739D01*
X29249344Y-36341045D01*
X29179714Y-36354906D01*
X29113643Y-36328922D01*
X29086405Y-36299773D01*
X28985607Y-36150053D01*
X28982627Y-36145626D01*
X28941062Y-36102054D01*
X28848791Y-36005330D01*
X28823482Y-35978799D01*
X28638504Y-35841171D01*
X28633753Y-35838755D01*
X28633749Y-35838753D01*
X28437740Y-35739097D01*
X28437739Y-35739097D01*
X28432982Y-35736678D01*
X28316625Y-35700548D01*
X28217895Y-35669891D01*
X28217889Y-35669890D01*
X28212792Y-35668307D01*
X28107798Y-35654391D01*
X27989515Y-35638714D01*
X27989510Y-35638714D01*
X27984230Y-35638014D01*
X27978900Y-35638214D01*
X27978899Y-35638214D01*
X27885320Y-35641727D01*
X27753831Y-35646663D01*
X27709246Y-35656018D01*
X27533411Y-35692912D01*
X27533408Y-35692913D01*
X27528184Y-35694009D01*
X27313740Y-35778697D01*
X27116631Y-35898306D01*
X27112601Y-35901803D01*
X27004576Y-35995542D01*
X26942492Y-36049415D01*
X26939109Y-36053541D01*
X26939105Y-36053545D01*
X26866768Y-36141767D01*
X26796304Y-36227705D01*
X26793665Y-36232341D01*
X26793663Y-36232344D01*
X26696166Y-36403621D01*
X26682245Y-36428077D01*
X26603578Y-36644802D01*
X26602629Y-36650051D01*
X26602628Y-36650054D01*
X26569580Y-36832812D01*
X26562551Y-36871683D01*
X26560338Y-37102233D01*
X26597002Y-37329861D01*
X26671494Y-37548056D01*
X26674044Y-37552743D01*
X26674045Y-37552745D01*
X26726574Y-37649289D01*
X26781685Y-37750580D01*
X26924424Y-37931644D01*
X26966227Y-37969350D01*
X27091659Y-38082489D01*
X27091665Y-38082494D01*
X27095629Y-38086069D01*
X27100142Y-38088928D01*
X27100144Y-38088929D01*
X27232921Y-38173029D01*
X27279766Y-38226377D01*
X27291500Y-38279473D01*
X27291501Y-39908859D01*
X27271499Y-39976980D01*
X27256975Y-39995510D01*
X27188642Y-40067645D01*
X27136342Y-40157687D01*
X27126458Y-40174703D01*
X27074947Y-40223561D01*
X27026436Y-40234381D01*
X27026646Y-40236965D01*
X26975993Y-40241085D01*
X26965778Y-40241500D01*
X26957114Y-40241500D01*
X26953480Y-40241924D01*
X26953474Y-40241924D01*
X26943533Y-40243083D01*
X26927485Y-40244954D01*
X26923158Y-40245382D01*
X26893994Y-40247754D01*
X26857692Y-40250707D01*
X26857688Y-40250708D01*
X26850395Y-40251301D01*
X26843434Y-40253556D01*
X26837503Y-40254741D01*
X26831627Y-40256130D01*
X26824357Y-40256978D01*
X26755722Y-40281891D01*
X26751618Y-40283299D01*
X26751552Y-40283321D01*
X26689134Y-40303541D01*
X26689129Y-40303543D01*
X26682169Y-40305798D01*
X26675911Y-40309595D01*
X26670426Y-40312107D01*
X26665020Y-40314814D01*
X26658136Y-40317313D01*
X26597067Y-40357351D01*
X26593385Y-40359674D01*
X26530994Y-40397535D01*
X26526786Y-40401251D01*
X26526782Y-40401254D01*
X26521679Y-40405760D01*
X26519100Y-40407977D01*
X26516376Y-40410255D01*
X26510253Y-40414269D01*
X26505218Y-40419584D01*
X26461140Y-40466114D01*
X26458763Y-40468556D01*
X26081711Y-40845609D01*
X25722725Y-41204595D01*
X25660412Y-41238620D01*
X25633629Y-41241500D01*
X25487354Y-41241500D01*
X25419233Y-41221498D01*
X25372740Y-41167842D01*
X25361675Y-41124488D01*
X25358755Y-41083660D01*
X25358273Y-41076921D01*
X25334846Y-40997136D01*
X25319635Y-40945330D01*
X25319634Y-40945328D01*
X25317096Y-40936684D01*
X25271393Y-40865569D01*
X25242949Y-40821309D01*
X25242947Y-40821306D01*
X25238077Y-40813729D01*
X25231267Y-40807828D01*
X25134431Y-40723918D01*
X25134428Y-40723916D01*
X25127619Y-40718016D01*
X24994670Y-40657300D01*
X24985755Y-40656018D01*
X24985754Y-40656018D01*
X24854448Y-40637139D01*
X24854441Y-40637138D01*
X24850000Y-40636500D01*
X23150000Y-40636500D01*
X23076921Y-40641727D01*
X23023884Y-40657300D01*
X22945330Y-40680365D01*
X22945328Y-40680366D01*
X22936684Y-40682904D01*
X22929105Y-40687775D01*
X22821309Y-40757051D01*
X22821306Y-40757053D01*
X22813729Y-40761923D01*
X22807828Y-40768733D01*
X22723918Y-40865569D01*
X22723916Y-40865572D01*
X22718016Y-40872381D01*
X22714272Y-40880579D01*
X22687729Y-40938701D01*
X22657300Y-41005330D01*
X22656018Y-41014245D01*
X22656018Y-41014246D01*
X22637139Y-41145552D01*
X22637138Y-41145559D01*
X22636500Y-41150000D01*
X21508000Y-41150000D01*
X21508000Y-35497434D01*
X41960848Y-35497434D01*
X41966856Y-35507646D01*
X42907188Y-36447978D01*
X42921132Y-36455592D01*
X42922965Y-36455461D01*
X42929580Y-36451210D01*
X43871689Y-35509101D01*
X43878060Y-35497434D01*
X47040848Y-35497434D01*
X47046856Y-35507646D01*
X47987188Y-36447978D01*
X48001132Y-36455592D01*
X48002965Y-36455461D01*
X48009580Y-36451210D01*
X48951689Y-35509101D01*
X48959079Y-35495569D01*
X48955386Y-35490292D01*
X48747856Y-35363117D01*
X48739062Y-35358636D01*
X48510743Y-35264063D01*
X48501358Y-35261014D01*
X48261053Y-35203321D01*
X48251306Y-35201778D01*
X48004930Y-35182388D01*
X47995070Y-35182388D01*
X47748694Y-35201778D01*
X47738947Y-35203321D01*
X47498642Y-35261014D01*
X47489257Y-35264063D01*
X47260938Y-35358636D01*
X47252144Y-35363117D01*
X47046112Y-35489374D01*
X47040848Y-35497434D01*
X43878060Y-35497434D01*
X43879079Y-35495569D01*
X43875386Y-35490292D01*
X43667856Y-35363117D01*
X43659062Y-35358636D01*
X43430743Y-35264063D01*
X43421358Y-35261014D01*
X43181053Y-35203321D01*
X43171306Y-35201778D01*
X42924930Y-35182388D01*
X42915070Y-35182388D01*
X42668694Y-35201778D01*
X42658947Y-35203321D01*
X42418642Y-35261014D01*
X42409257Y-35264063D01*
X42180938Y-35358636D01*
X42172144Y-35363117D01*
X41966112Y-35489374D01*
X41960848Y-35497434D01*
X21508000Y-35497434D01*
X21508000Y-34634000D01*
X21528002Y-34565879D01*
X21581658Y-34519386D01*
X21634000Y-34508000D01*
X55366000Y-34508000D01*
X55434121Y-34528002D01*
G37*
%TD.AperFunction*%
%TA.AperFunction,Conductor*%
G36*
X30128000Y-45658501D02*
G01*
X30196121Y-45678503D01*
X30242614Y-45732159D01*
X30254000Y-45784501D01*
X30253999Y-46933000D01*
X30250740Y-46933000D01*
X30250739Y-46974785D01*
X30218939Y-47028379D01*
X29814094Y-47433224D01*
X29751782Y-47467250D01*
X29680967Y-47462185D01*
X29635904Y-47433224D01*
X29346023Y-47143343D01*
X29311997Y-47081031D01*
X29317062Y-47010216D01*
X29359609Y-46953380D01*
X29426129Y-46928569D01*
X29446318Y-46928747D01*
X29491182Y-46932751D01*
X29496779Y-46933000D01*
X29727885Y-46933000D01*
X29743124Y-46928525D01*
X29744329Y-46927135D01*
X29746000Y-46919452D01*
X29746001Y-45784500D01*
X29766003Y-45716379D01*
X29819659Y-45669886D01*
X29872001Y-45658500D01*
X30128000Y-45658501D01*
G37*
%TD.AperFunction*%
%TD*%
M02*
