%TF.GenerationSoftware,KiCad,Pcbnew,5.99.0-unknown-34fb55dc9c~93~ubuntu20.04.1*%
%TF.CreationDate,2020-12-20T23:19:58+03:00*%
%TF.ProjectId,uhf_detector,7568665f-6465-4746-9563-746f722e6b69,rev?*%
%TF.SameCoordinates,Original*%
%TF.FileFunction,Legend,Top*%
%TF.FilePolarity,Positive*%
%FSLAX46Y46*%
G04 Gerber Fmt 4.6, Leading zero omitted, Abs format (unit mm)*
G04 Created by KiCad (PCBNEW 5.99.0-unknown-34fb55dc9c~93~ubuntu20.04.1) date 2020-12-20 23:19:58*
%MOMM*%
%LPD*%
G01*
G04 APERTURE LIST*
%ADD10C,0.150000*%
%ADD11C,0.120000*%
G04 APERTURE END LIST*
D10*
%TO.C,R5*%
X34452380Y-45166666D02*
X33976190Y-45500000D01*
X34452380Y-45738095D02*
X33452380Y-45738095D01*
X33452380Y-45357142D01*
X33500000Y-45261904D01*
X33547619Y-45214285D01*
X33642857Y-45166666D01*
X33785714Y-45166666D01*
X33880952Y-45214285D01*
X33928571Y-45261904D01*
X33976190Y-45357142D01*
X33976190Y-45738095D01*
X33452380Y-44261904D02*
X33452380Y-44738095D01*
X33928571Y-44785714D01*
X33880952Y-44738095D01*
X33833333Y-44642857D01*
X33833333Y-44404761D01*
X33880952Y-44309523D01*
X33928571Y-44261904D01*
X34023809Y-44214285D01*
X34261904Y-44214285D01*
X34357142Y-44261904D01*
X34404761Y-44309523D01*
X34452380Y-44404761D01*
X34452380Y-44642857D01*
X34404761Y-44738095D01*
X34357142Y-44785714D01*
%TO.C,J6*%
X39936666Y-59452380D02*
X39936666Y-60166666D01*
X39889047Y-60309523D01*
X39793809Y-60404761D01*
X39650952Y-60452380D01*
X39555714Y-60452380D01*
X40841428Y-59452380D02*
X40650952Y-59452380D01*
X40555714Y-59500000D01*
X40508095Y-59547619D01*
X40412857Y-59690476D01*
X40365238Y-59880952D01*
X40365238Y-60261904D01*
X40412857Y-60357142D01*
X40460476Y-60404761D01*
X40555714Y-60452380D01*
X40746190Y-60452380D01*
X40841428Y-60404761D01*
X40889047Y-60357142D01*
X40936666Y-60261904D01*
X40936666Y-60023809D01*
X40889047Y-59928571D01*
X40841428Y-59880952D01*
X40746190Y-59833333D01*
X40555714Y-59833333D01*
X40460476Y-59880952D01*
X40412857Y-59928571D01*
X40365238Y-60023809D01*
%TO.C,C2*%
X44833333Y-56357142D02*
X44785714Y-56404761D01*
X44642857Y-56452380D01*
X44547619Y-56452380D01*
X44404761Y-56404761D01*
X44309523Y-56309523D01*
X44261904Y-56214285D01*
X44214285Y-56023809D01*
X44214285Y-55880952D01*
X44261904Y-55690476D01*
X44309523Y-55595238D01*
X44404761Y-55500000D01*
X44547619Y-55452380D01*
X44642857Y-55452380D01*
X44785714Y-55500000D01*
X44833333Y-55547619D01*
X45214285Y-55547619D02*
X45261904Y-55500000D01*
X45357142Y-55452380D01*
X45595238Y-55452380D01*
X45690476Y-55500000D01*
X45738095Y-55547619D01*
X45785714Y-55642857D01*
X45785714Y-55738095D01*
X45738095Y-55880952D01*
X45166666Y-56452380D01*
X45785714Y-56452380D01*
%TO.C,J5*%
X38666666Y-34172380D02*
X38666666Y-34886666D01*
X38619047Y-35029523D01*
X38523809Y-35124761D01*
X38380952Y-35172380D01*
X38285714Y-35172380D01*
X39619047Y-34172380D02*
X39142857Y-34172380D01*
X39095238Y-34648571D01*
X39142857Y-34600952D01*
X39238095Y-34553333D01*
X39476190Y-34553333D01*
X39571428Y-34600952D01*
X39619047Y-34648571D01*
X39666666Y-34743809D01*
X39666666Y-34981904D01*
X39619047Y-35077142D01*
X39571428Y-35124761D01*
X39476190Y-35172380D01*
X39238095Y-35172380D01*
X39142857Y-35124761D01*
X39095238Y-35077142D01*
%TO.C,U1*%
X31538095Y-53352380D02*
X31538095Y-54161904D01*
X31585714Y-54257142D01*
X31633333Y-54304761D01*
X31728571Y-54352380D01*
X31919047Y-54352380D01*
X32014285Y-54304761D01*
X32061904Y-54257142D01*
X32109523Y-54161904D01*
X32109523Y-53352380D01*
X33109523Y-54352380D02*
X32538095Y-54352380D01*
X32823809Y-54352380D02*
X32823809Y-53352380D01*
X32728571Y-53495238D01*
X32633333Y-53590476D01*
X32538095Y-53638095D01*
%TO.C,R4*%
X24833333Y-62102380D02*
X24500000Y-61626190D01*
X24261904Y-62102380D02*
X24261904Y-61102380D01*
X24642857Y-61102380D01*
X24738095Y-61150000D01*
X24785714Y-61197619D01*
X24833333Y-61292857D01*
X24833333Y-61435714D01*
X24785714Y-61530952D01*
X24738095Y-61578571D01*
X24642857Y-61626190D01*
X24261904Y-61626190D01*
X25690476Y-61435714D02*
X25690476Y-62102380D01*
X25452380Y-61054761D02*
X25214285Y-61769047D01*
X25833333Y-61769047D01*
%TO.C,R3*%
X26102380Y-49166666D02*
X25626190Y-49500000D01*
X26102380Y-49738095D02*
X25102380Y-49738095D01*
X25102380Y-49357142D01*
X25150000Y-49261904D01*
X25197619Y-49214285D01*
X25292857Y-49166666D01*
X25435714Y-49166666D01*
X25530952Y-49214285D01*
X25578571Y-49261904D01*
X25626190Y-49357142D01*
X25626190Y-49738095D01*
X25102380Y-48833333D02*
X25102380Y-48214285D01*
X25483333Y-48547619D01*
X25483333Y-48404761D01*
X25530952Y-48309523D01*
X25578571Y-48261904D01*
X25673809Y-48214285D01*
X25911904Y-48214285D01*
X26007142Y-48261904D01*
X26054761Y-48309523D01*
X26102380Y-48404761D01*
X26102380Y-48690476D01*
X26054761Y-48785714D01*
X26007142Y-48833333D01*
%TO.C,R2*%
X37102380Y-56166666D02*
X36626190Y-56500000D01*
X37102380Y-56738095D02*
X36102380Y-56738095D01*
X36102380Y-56357142D01*
X36150000Y-56261904D01*
X36197619Y-56214285D01*
X36292857Y-56166666D01*
X36435714Y-56166666D01*
X36530952Y-56214285D01*
X36578571Y-56261904D01*
X36626190Y-56357142D01*
X36626190Y-56738095D01*
X36197619Y-55785714D02*
X36150000Y-55738095D01*
X36102380Y-55642857D01*
X36102380Y-55404761D01*
X36150000Y-55309523D01*
X36197619Y-55261904D01*
X36292857Y-55214285D01*
X36388095Y-55214285D01*
X36530952Y-55261904D01*
X37102380Y-55833333D01*
X37102380Y-55214285D01*
%TO.C,R1*%
X28802380Y-45166666D02*
X28326190Y-45500000D01*
X28802380Y-45738095D02*
X27802380Y-45738095D01*
X27802380Y-45357142D01*
X27850000Y-45261904D01*
X27897619Y-45214285D01*
X27992857Y-45166666D01*
X28135714Y-45166666D01*
X28230952Y-45214285D01*
X28278571Y-45261904D01*
X28326190Y-45357142D01*
X28326190Y-45738095D01*
X28802380Y-44214285D02*
X28802380Y-44785714D01*
X28802380Y-44500000D02*
X27802380Y-44500000D01*
X27945238Y-44595238D01*
X28040476Y-44690476D01*
X28088095Y-44785714D01*
%TO.C,J4*%
X45126666Y-34062380D02*
X45126666Y-34776666D01*
X45079047Y-34919523D01*
X44983809Y-35014761D01*
X44840952Y-35062380D01*
X44745714Y-35062380D01*
X46031428Y-34395714D02*
X46031428Y-35062380D01*
X45793333Y-34014761D02*
X45555238Y-34729047D01*
X46174285Y-34729047D01*
%TO.C,J3*%
X34782380Y-37333333D02*
X35496666Y-37333333D01*
X35639523Y-37380952D01*
X35734761Y-37476190D01*
X35782380Y-37619047D01*
X35782380Y-37714285D01*
X34782380Y-36952380D02*
X34782380Y-36333333D01*
X35163333Y-36666666D01*
X35163333Y-36523809D01*
X35210952Y-36428571D01*
X35258571Y-36380952D01*
X35353809Y-36333333D01*
X35591904Y-36333333D01*
X35687142Y-36380952D01*
X35734761Y-36428571D01*
X35782380Y-36523809D01*
X35782380Y-36809523D01*
X35734761Y-36904761D01*
X35687142Y-36952380D01*
%TO.C,J2*%
X23666666Y-57782380D02*
X23666666Y-58496666D01*
X23619047Y-58639523D01*
X23523809Y-58734761D01*
X23380952Y-58782380D01*
X23285714Y-58782380D01*
X24095238Y-57877619D02*
X24142857Y-57830000D01*
X24238095Y-57782380D01*
X24476190Y-57782380D01*
X24571428Y-57830000D01*
X24619047Y-57877619D01*
X24666666Y-57972857D01*
X24666666Y-58068095D01*
X24619047Y-58210952D01*
X24047619Y-58782380D01*
X24666666Y-58782380D01*
%TO.C,J1*%
X23666666Y-39122380D02*
X23666666Y-39836666D01*
X23619047Y-39979523D01*
X23523809Y-40074761D01*
X23380952Y-40122380D01*
X23285714Y-40122380D01*
X24666666Y-40122380D02*
X24095238Y-40122380D01*
X24380952Y-40122380D02*
X24380952Y-39122380D01*
X24285714Y-39265238D01*
X24190476Y-39360476D01*
X24095238Y-39408095D01*
%TO.C,D3*%
X32531904Y-59492380D02*
X32531904Y-58492380D01*
X32770000Y-58492380D01*
X32912857Y-58540000D01*
X33008095Y-58635238D01*
X33055714Y-58730476D01*
X33103333Y-58920952D01*
X33103333Y-59063809D01*
X33055714Y-59254285D01*
X33008095Y-59349523D01*
X32912857Y-59444761D01*
X32770000Y-59492380D01*
X32531904Y-59492380D01*
X33436666Y-58492380D02*
X34055714Y-58492380D01*
X33722380Y-58873333D01*
X33865238Y-58873333D01*
X33960476Y-58920952D01*
X34008095Y-58968571D01*
X34055714Y-59063809D01*
X34055714Y-59301904D01*
X34008095Y-59397142D01*
X33960476Y-59444761D01*
X33865238Y-59492380D01*
X33579523Y-59492380D01*
X33484285Y-59444761D01*
X33436666Y-59397142D01*
%TO.C,D2*%
X51261904Y-55452380D02*
X51261904Y-54452380D01*
X51500000Y-54452380D01*
X51642857Y-54500000D01*
X51738095Y-54595238D01*
X51785714Y-54690476D01*
X51833333Y-54880952D01*
X51833333Y-55023809D01*
X51785714Y-55214285D01*
X51738095Y-55309523D01*
X51642857Y-55404761D01*
X51500000Y-55452380D01*
X51261904Y-55452380D01*
X52214285Y-54547619D02*
X52261904Y-54500000D01*
X52357142Y-54452380D01*
X52595238Y-54452380D01*
X52690476Y-54500000D01*
X52738095Y-54547619D01*
X52785714Y-54642857D01*
X52785714Y-54738095D01*
X52738095Y-54880952D01*
X52166666Y-55452380D01*
X52785714Y-55452380D01*
X38138095Y-50252380D02*
X38138095Y-49252380D01*
X38709523Y-50252380D02*
X38280952Y-49680952D01*
X38709523Y-49252380D02*
X38138095Y-49823809D01*
%TO.C,D1*%
X51261904Y-44452380D02*
X51261904Y-43452380D01*
X51500000Y-43452380D01*
X51642857Y-43500000D01*
X51738095Y-43595238D01*
X51785714Y-43690476D01*
X51833333Y-43880952D01*
X51833333Y-44023809D01*
X51785714Y-44214285D01*
X51738095Y-44309523D01*
X51642857Y-44404761D01*
X51500000Y-44452380D01*
X51261904Y-44452380D01*
X52785714Y-44452380D02*
X52214285Y-44452380D01*
X52500000Y-44452380D02*
X52500000Y-43452380D01*
X52404761Y-43595238D01*
X52309523Y-43690476D01*
X52214285Y-43738095D01*
X53288095Y-49952380D02*
X53288095Y-48952380D01*
X53859523Y-49952380D02*
X53430952Y-49380952D01*
X53859523Y-48952380D02*
X53288095Y-49523809D01*
%TO.C,C6*%
X35833333Y-41357142D02*
X35785714Y-41404761D01*
X35642857Y-41452380D01*
X35547619Y-41452380D01*
X35404761Y-41404761D01*
X35309523Y-41309523D01*
X35261904Y-41214285D01*
X35214285Y-41023809D01*
X35214285Y-40880952D01*
X35261904Y-40690476D01*
X35309523Y-40595238D01*
X35404761Y-40500000D01*
X35547619Y-40452380D01*
X35642857Y-40452380D01*
X35785714Y-40500000D01*
X35833333Y-40547619D01*
X36690476Y-40452380D02*
X36500000Y-40452380D01*
X36404761Y-40500000D01*
X36357142Y-40547619D01*
X36261904Y-40690476D01*
X36214285Y-40880952D01*
X36214285Y-41261904D01*
X36261904Y-41357142D01*
X36309523Y-41404761D01*
X36404761Y-41452380D01*
X36595238Y-41452380D01*
X36690476Y-41404761D01*
X36738095Y-41357142D01*
X36785714Y-41261904D01*
X36785714Y-41023809D01*
X36738095Y-40928571D01*
X36690476Y-40880952D01*
X36595238Y-40833333D01*
X36404761Y-40833333D01*
X36309523Y-40880952D01*
X36261904Y-40928571D01*
X36214285Y-41023809D01*
%TO.C,C5*%
X28833333Y-39677142D02*
X28785714Y-39724761D01*
X28642857Y-39772380D01*
X28547619Y-39772380D01*
X28404761Y-39724761D01*
X28309523Y-39629523D01*
X28261904Y-39534285D01*
X28214285Y-39343809D01*
X28214285Y-39200952D01*
X28261904Y-39010476D01*
X28309523Y-38915238D01*
X28404761Y-38820000D01*
X28547619Y-38772380D01*
X28642857Y-38772380D01*
X28785714Y-38820000D01*
X28833333Y-38867619D01*
X29738095Y-38772380D02*
X29261904Y-38772380D01*
X29214285Y-39248571D01*
X29261904Y-39200952D01*
X29357142Y-39153333D01*
X29595238Y-39153333D01*
X29690476Y-39200952D01*
X29738095Y-39248571D01*
X29785714Y-39343809D01*
X29785714Y-39581904D01*
X29738095Y-39677142D01*
X29690476Y-39724761D01*
X29595238Y-39772380D01*
X29357142Y-39772380D01*
X29261904Y-39724761D01*
X29214285Y-39677142D01*
%TO.C,C4*%
X31637142Y-56716666D02*
X31684761Y-56764285D01*
X31732380Y-56907142D01*
X31732380Y-57002380D01*
X31684761Y-57145238D01*
X31589523Y-57240476D01*
X31494285Y-57288095D01*
X31303809Y-57335714D01*
X31160952Y-57335714D01*
X30970476Y-57288095D01*
X30875238Y-57240476D01*
X30780000Y-57145238D01*
X30732380Y-57002380D01*
X30732380Y-56907142D01*
X30780000Y-56764285D01*
X30827619Y-56716666D01*
X31065714Y-55859523D02*
X31732380Y-55859523D01*
X30684761Y-56097619D02*
X31399047Y-56335714D01*
X31399047Y-55716666D01*
%TO.C,C3*%
X40037142Y-56166666D02*
X40084761Y-56214285D01*
X40132380Y-56357142D01*
X40132380Y-56452380D01*
X40084761Y-56595238D01*
X39989523Y-56690476D01*
X39894285Y-56738095D01*
X39703809Y-56785714D01*
X39560952Y-56785714D01*
X39370476Y-56738095D01*
X39275238Y-56690476D01*
X39180000Y-56595238D01*
X39132380Y-56452380D01*
X39132380Y-56357142D01*
X39180000Y-56214285D01*
X39227619Y-56166666D01*
X39132380Y-55833333D02*
X39132380Y-55214285D01*
X39513333Y-55547619D01*
X39513333Y-55404761D01*
X39560952Y-55309523D01*
X39608571Y-55261904D01*
X39703809Y-55214285D01*
X39941904Y-55214285D01*
X40037142Y-55261904D01*
X40084761Y-55309523D01*
X40132380Y-55404761D01*
X40132380Y-55690476D01*
X40084761Y-55785714D01*
X40037142Y-55833333D01*
%TO.C,C1*%
X51933333Y-37677142D02*
X51885714Y-37724761D01*
X51742857Y-37772380D01*
X51647619Y-37772380D01*
X51504761Y-37724761D01*
X51409523Y-37629523D01*
X51361904Y-37534285D01*
X51314285Y-37343809D01*
X51314285Y-37200952D01*
X51361904Y-37010476D01*
X51409523Y-36915238D01*
X51504761Y-36820000D01*
X51647619Y-36772380D01*
X51742857Y-36772380D01*
X51885714Y-36820000D01*
X51933333Y-36867619D01*
X52885714Y-37772380D02*
X52314285Y-37772380D01*
X52600000Y-37772380D02*
X52600000Y-36772380D01*
X52504761Y-36915238D01*
X52409523Y-37010476D01*
X52314285Y-37058095D01*
D11*
%TO.C,R5*%
X31265000Y-44772936D02*
X31265000Y-45227064D01*
X32735000Y-44772936D02*
X32735000Y-45227064D01*
%TO.C,J6*%
X37670000Y-64330000D02*
X37670000Y-63000000D01*
X39000000Y-64330000D02*
X37670000Y-64330000D01*
X40270000Y-64330000D02*
X40270000Y-61670000D01*
X40270000Y-61670000D02*
X42870000Y-61670000D01*
X40270000Y-64330000D02*
X42870000Y-64330000D01*
X42870000Y-64330000D02*
X42870000Y-61670000D01*
%TO.C,C2*%
X44520354Y-57625000D02*
X44520354Y-58625000D01*
X44020354Y-58125000D02*
X45020354Y-58125000D01*
X54581000Y-60401000D02*
X54581000Y-61599000D01*
X54541000Y-60138000D02*
X54541000Y-61862000D01*
X54501000Y-59938000D02*
X54501000Y-62062000D01*
X54461000Y-59770000D02*
X54461000Y-62230000D01*
X54421000Y-59622000D02*
X54421000Y-62378000D01*
X54381000Y-59490000D02*
X54381000Y-62510000D01*
X54341000Y-59370000D02*
X54341000Y-62630000D01*
X54301000Y-59258000D02*
X54301000Y-62742000D01*
X54261000Y-59154000D02*
X54261000Y-62846000D01*
X54221000Y-59056000D02*
X54221000Y-62944000D01*
X54181000Y-58963000D02*
X54181000Y-63037000D01*
X54141000Y-58875000D02*
X54141000Y-63125000D01*
X54101000Y-58791000D02*
X54101000Y-63209000D01*
X54061000Y-58711000D02*
X54061000Y-63289000D01*
X54021000Y-58635000D02*
X54021000Y-63365000D01*
X53981000Y-58561000D02*
X53981000Y-63439000D01*
X53941000Y-58490000D02*
X53941000Y-63510000D01*
X53901000Y-58421000D02*
X53901000Y-63579000D01*
X53861000Y-58355000D02*
X53861000Y-63645000D01*
X53821000Y-58291000D02*
X53821000Y-63709000D01*
X53781000Y-58230000D02*
X53781000Y-63770000D01*
X53741000Y-58170000D02*
X53741000Y-63830000D01*
X53701000Y-58111000D02*
X53701000Y-63889000D01*
X53661000Y-58055000D02*
X53661000Y-63945000D01*
X53621000Y-58000000D02*
X53621000Y-64000000D01*
X53581000Y-57946000D02*
X53581000Y-64054000D01*
X53541000Y-57894000D02*
X53541000Y-64106000D01*
X53501000Y-57844000D02*
X53501000Y-64156000D01*
X53461000Y-57794000D02*
X53461000Y-64206000D01*
X53421000Y-57746000D02*
X53421000Y-64254000D01*
X53381000Y-57699000D02*
X53381000Y-64301000D01*
X53341000Y-57653000D02*
X53341000Y-64347000D01*
X53301000Y-57608000D02*
X53301000Y-64392000D01*
X53261000Y-57564000D02*
X53261000Y-64436000D01*
X53221000Y-62241000D02*
X53221000Y-64478000D01*
X53221000Y-57522000D02*
X53221000Y-59759000D01*
X53181000Y-62241000D02*
X53181000Y-64520000D01*
X53181000Y-57480000D02*
X53181000Y-59759000D01*
X53141000Y-62241000D02*
X53141000Y-64561000D01*
X53141000Y-57439000D02*
X53141000Y-59759000D01*
X53101000Y-62241000D02*
X53101000Y-64601000D01*
X53101000Y-57399000D02*
X53101000Y-59759000D01*
X53061000Y-62241000D02*
X53061000Y-64640000D01*
X53061000Y-57360000D02*
X53061000Y-59759000D01*
X53021000Y-62241000D02*
X53021000Y-64679000D01*
X53021000Y-57321000D02*
X53021000Y-59759000D01*
X52981000Y-62241000D02*
X52981000Y-64716000D01*
X52981000Y-57284000D02*
X52981000Y-59759000D01*
X52941000Y-62241000D02*
X52941000Y-64753000D01*
X52941000Y-57247000D02*
X52941000Y-59759000D01*
X52901000Y-62241000D02*
X52901000Y-64789000D01*
X52901000Y-57211000D02*
X52901000Y-59759000D01*
X52861000Y-62241000D02*
X52861000Y-64824000D01*
X52861000Y-57176000D02*
X52861000Y-59759000D01*
X52821000Y-62241000D02*
X52821000Y-64858000D01*
X52821000Y-57142000D02*
X52821000Y-59759000D01*
X52781000Y-62241000D02*
X52781000Y-64892000D01*
X52781000Y-57108000D02*
X52781000Y-59759000D01*
X52741000Y-62241000D02*
X52741000Y-64925000D01*
X52741000Y-57075000D02*
X52741000Y-59759000D01*
X52701000Y-62241000D02*
X52701000Y-64957000D01*
X52701000Y-57043000D02*
X52701000Y-59759000D01*
X52661000Y-62241000D02*
X52661000Y-64989000D01*
X52661000Y-57011000D02*
X52661000Y-59759000D01*
X52621000Y-62241000D02*
X52621000Y-65020000D01*
X52621000Y-56980000D02*
X52621000Y-59759000D01*
X52581000Y-62241000D02*
X52581000Y-65050000D01*
X52581000Y-56950000D02*
X52581000Y-59759000D01*
X52541000Y-62241000D02*
X52541000Y-65080000D01*
X52541000Y-56920000D02*
X52541000Y-59759000D01*
X52501000Y-62241000D02*
X52501000Y-65110000D01*
X52501000Y-56890000D02*
X52501000Y-59759000D01*
X52461000Y-62241000D02*
X52461000Y-65138000D01*
X52461000Y-56862000D02*
X52461000Y-59759000D01*
X52421000Y-62241000D02*
X52421000Y-65166000D01*
X52421000Y-56834000D02*
X52421000Y-59759000D01*
X52381000Y-62241000D02*
X52381000Y-65194000D01*
X52381000Y-56806000D02*
X52381000Y-59759000D01*
X52341000Y-62241000D02*
X52341000Y-65221000D01*
X52341000Y-56779000D02*
X52341000Y-59759000D01*
X52301000Y-62241000D02*
X52301000Y-65247000D01*
X52301000Y-56753000D02*
X52301000Y-59759000D01*
X52261000Y-62241000D02*
X52261000Y-65273000D01*
X52261000Y-56727000D02*
X52261000Y-59759000D01*
X52221000Y-62241000D02*
X52221000Y-65298000D01*
X52221000Y-56702000D02*
X52221000Y-59759000D01*
X52181000Y-62241000D02*
X52181000Y-65323000D01*
X52181000Y-56677000D02*
X52181000Y-59759000D01*
X52141000Y-62241000D02*
X52141000Y-65347000D01*
X52141000Y-56653000D02*
X52141000Y-59759000D01*
X52101000Y-62241000D02*
X52101000Y-65371000D01*
X52101000Y-56629000D02*
X52101000Y-59759000D01*
X52061000Y-62241000D02*
X52061000Y-65395000D01*
X52061000Y-56605000D02*
X52061000Y-59759000D01*
X52021000Y-62241000D02*
X52021000Y-65417000D01*
X52021000Y-56583000D02*
X52021000Y-59759000D01*
X51981000Y-62241000D02*
X51981000Y-65440000D01*
X51981000Y-56560000D02*
X51981000Y-59759000D01*
X51941000Y-62241000D02*
X51941000Y-65462000D01*
X51941000Y-56538000D02*
X51941000Y-59759000D01*
X51901000Y-62241000D02*
X51901000Y-65483000D01*
X51901000Y-56517000D02*
X51901000Y-59759000D01*
X51861000Y-62241000D02*
X51861000Y-65504000D01*
X51861000Y-56496000D02*
X51861000Y-59759000D01*
X51821000Y-62241000D02*
X51821000Y-65525000D01*
X51821000Y-56475000D02*
X51821000Y-59759000D01*
X51781000Y-62241000D02*
X51781000Y-65545000D01*
X51781000Y-56455000D02*
X51781000Y-59759000D01*
X51741000Y-62241000D02*
X51741000Y-65564000D01*
X51741000Y-56436000D02*
X51741000Y-59759000D01*
X51701000Y-62241000D02*
X51701000Y-65584000D01*
X51701000Y-56416000D02*
X51701000Y-59759000D01*
X51661000Y-62241000D02*
X51661000Y-65603000D01*
X51661000Y-56397000D02*
X51661000Y-59759000D01*
X51621000Y-62241000D02*
X51621000Y-65621000D01*
X51621000Y-56379000D02*
X51621000Y-59759000D01*
X51581000Y-62241000D02*
X51581000Y-65639000D01*
X51581000Y-56361000D02*
X51581000Y-59759000D01*
X51541000Y-62241000D02*
X51541000Y-65657000D01*
X51541000Y-56343000D02*
X51541000Y-59759000D01*
X51501000Y-62241000D02*
X51501000Y-65674000D01*
X51501000Y-56326000D02*
X51501000Y-59759000D01*
X51461000Y-62241000D02*
X51461000Y-65690000D01*
X51461000Y-56310000D02*
X51461000Y-59759000D01*
X51421000Y-62241000D02*
X51421000Y-65707000D01*
X51421000Y-56293000D02*
X51421000Y-59759000D01*
X51381000Y-62241000D02*
X51381000Y-65723000D01*
X51381000Y-56277000D02*
X51381000Y-59759000D01*
X51341000Y-62241000D02*
X51341000Y-65738000D01*
X51341000Y-56262000D02*
X51341000Y-59759000D01*
X51301000Y-62241000D02*
X51301000Y-65754000D01*
X51301000Y-56246000D02*
X51301000Y-59759000D01*
X51261000Y-62241000D02*
X51261000Y-65768000D01*
X51261000Y-56232000D02*
X51261000Y-59759000D01*
X51221000Y-62241000D02*
X51221000Y-65783000D01*
X51221000Y-56217000D02*
X51221000Y-59759000D01*
X51181000Y-62241000D02*
X51181000Y-65797000D01*
X51181000Y-56203000D02*
X51181000Y-59759000D01*
X51141000Y-62241000D02*
X51141000Y-65811000D01*
X51141000Y-56189000D02*
X51141000Y-59759000D01*
X51101000Y-62241000D02*
X51101000Y-65824000D01*
X51101000Y-56176000D02*
X51101000Y-59759000D01*
X51061000Y-62241000D02*
X51061000Y-65837000D01*
X51061000Y-56163000D02*
X51061000Y-59759000D01*
X51021000Y-62241000D02*
X51021000Y-65850000D01*
X51021000Y-56150000D02*
X51021000Y-59759000D01*
X50981000Y-62241000D02*
X50981000Y-65862000D01*
X50981000Y-56138000D02*
X50981000Y-59759000D01*
X50941000Y-62241000D02*
X50941000Y-65874000D01*
X50941000Y-56126000D02*
X50941000Y-59759000D01*
X50901000Y-62241000D02*
X50901000Y-65885000D01*
X50901000Y-56115000D02*
X50901000Y-59759000D01*
X50861000Y-62241000D02*
X50861000Y-65897000D01*
X50861000Y-56103000D02*
X50861000Y-59759000D01*
X50821000Y-62241000D02*
X50821000Y-65907000D01*
X50821000Y-56093000D02*
X50821000Y-59759000D01*
X50781000Y-62241000D02*
X50781000Y-65918000D01*
X50781000Y-56082000D02*
X50781000Y-59759000D01*
X50741000Y-56072000D02*
X50741000Y-65928000D01*
X50701000Y-56062000D02*
X50701000Y-65938000D01*
X50661000Y-56053000D02*
X50661000Y-65947000D01*
X50621000Y-56044000D02*
X50621000Y-65956000D01*
X50581000Y-56035000D02*
X50581000Y-65965000D01*
X50541000Y-56026000D02*
X50541000Y-65974000D01*
X50501000Y-56018000D02*
X50501000Y-65982000D01*
X50461000Y-56010000D02*
X50461000Y-65990000D01*
X50421000Y-56003000D02*
X50421000Y-65997000D01*
X50381000Y-55996000D02*
X50381000Y-66004000D01*
X50341000Y-55989000D02*
X50341000Y-66011000D01*
X50301000Y-55982000D02*
X50301000Y-66018000D01*
X50261000Y-55976000D02*
X50261000Y-66024000D01*
X50221000Y-55970000D02*
X50221000Y-66030000D01*
X50180000Y-55965000D02*
X50180000Y-66035000D01*
X50140000Y-55960000D02*
X50140000Y-66040000D01*
X50100000Y-55955000D02*
X50100000Y-66045000D01*
X50060000Y-55950000D02*
X50060000Y-66050000D01*
X50020000Y-55946000D02*
X50020000Y-66054000D01*
X49980000Y-55942000D02*
X49980000Y-66058000D01*
X49940000Y-55938000D02*
X49940000Y-66062000D01*
X49900000Y-55935000D02*
X49900000Y-66065000D01*
X49860000Y-55932000D02*
X49860000Y-66068000D01*
X49820000Y-55930000D02*
X49820000Y-66070000D01*
X49780000Y-55927000D02*
X49780000Y-66073000D01*
X49740000Y-55925000D02*
X49740000Y-66075000D01*
X49700000Y-55923000D02*
X49700000Y-66077000D01*
X49660000Y-55922000D02*
X49660000Y-66078000D01*
X49620000Y-55921000D02*
X49620000Y-66079000D01*
X49580000Y-55920000D02*
X49580000Y-66080000D01*
X49540000Y-55920000D02*
X49540000Y-66080000D01*
X49500000Y-55920000D02*
X49500000Y-66080000D01*
X54620000Y-61000000D02*
G75*
G03*
X54620000Y-61000000I-5120000J0D01*
G01*
%TO.C,J5*%
X37670000Y-35720000D02*
X39000000Y-35720000D01*
X37670000Y-37050000D02*
X37670000Y-35720000D01*
X37670000Y-38320000D02*
X40330000Y-38320000D01*
X40330000Y-38320000D02*
X40330000Y-40920000D01*
X37670000Y-38320000D02*
X37670000Y-40920000D01*
X37670000Y-40920000D02*
X40330000Y-40920000D01*
%TO.C,U1*%
X32300000Y-53060000D02*
X35750000Y-53060000D01*
X32300000Y-53060000D02*
X30350000Y-53060000D01*
X32300000Y-47940000D02*
X34250000Y-47940000D01*
X32300000Y-47940000D02*
X30350000Y-47940000D01*
%TO.C,R4*%
X25227064Y-59265000D02*
X24772936Y-59265000D01*
X25227064Y-60735000D02*
X24772936Y-60735000D01*
%TO.C,R3*%
X23265000Y-48772936D02*
X23265000Y-49227064D01*
X24735000Y-48772936D02*
X24735000Y-49227064D01*
%TO.C,R2*%
X34265000Y-55772936D02*
X34265000Y-56227064D01*
X35735000Y-55772936D02*
X35735000Y-56227064D01*
%TO.C,R1*%
X30735000Y-45227064D02*
X30735000Y-44772936D01*
X29265000Y-45227064D02*
X29265000Y-44772936D01*
%TO.C,J4*%
X43800000Y-35750000D02*
X47120000Y-35750000D01*
X43800000Y-42970000D02*
X47120000Y-42970000D01*
X49070000Y-37700000D02*
X49070000Y-41020000D01*
X41850000Y-37700000D02*
X41850000Y-41020000D01*
%TO.C,J3*%
X34330000Y-35670000D02*
X34330000Y-37000000D01*
X33000000Y-35670000D02*
X34330000Y-35670000D01*
X31730000Y-35670000D02*
X31730000Y-38330000D01*
X31730000Y-38330000D02*
X26590000Y-38330000D01*
X31730000Y-35670000D02*
X26590000Y-35670000D01*
X26590000Y-35670000D02*
X26590000Y-38330000D01*
%TO.C,J2*%
X25330000Y-57330000D02*
X24000000Y-57330000D01*
X25330000Y-56000000D02*
X25330000Y-57330000D01*
X25330000Y-54730000D02*
X22670000Y-54730000D01*
X22670000Y-54730000D02*
X22670000Y-52130000D01*
X25330000Y-54730000D02*
X25330000Y-52130000D01*
X25330000Y-52130000D02*
X22670000Y-52130000D01*
%TO.C,J1*%
X22670000Y-40670000D02*
X24000000Y-40670000D01*
X22670000Y-42000000D02*
X22670000Y-40670000D01*
X22670000Y-43270000D02*
X25330000Y-43270000D01*
X25330000Y-43270000D02*
X25330000Y-45870000D01*
X22670000Y-43270000D02*
X22670000Y-45870000D01*
X22670000Y-45870000D02*
X25330000Y-45870000D01*
%TO.C,D3*%
X30710000Y-61455000D02*
X30710000Y-64545000D01*
X35770000Y-63000000D02*
G75*
G03*
X35770000Y-63000000I-2500000J0D01*
G01*
X36260000Y-62999538D02*
G75*
G02*
X30710000Y-64544830I-2990000J-462D01*
G01*
X36260000Y-63000462D02*
G75*
G03*
X30710000Y-61455170I-2990000J462D01*
G01*
%TO.C,D2*%
X43240000Y-50080000D02*
X43240000Y-53920000D01*
X43480000Y-50080000D02*
X43480000Y-53920000D01*
X43360000Y-50080000D02*
X43360000Y-53920000D01*
X52200000Y-52000000D02*
X49940000Y-52000000D01*
X39840000Y-52000000D02*
X42100000Y-52000000D01*
X49940000Y-50080000D02*
X42100000Y-50080000D01*
X49940000Y-53920000D02*
X49940000Y-50080000D01*
X42100000Y-53920000D02*
X49940000Y-53920000D01*
X42100000Y-50080000D02*
X42100000Y-53920000D01*
%TO.C,D1*%
X48710000Y-49220000D02*
X48710000Y-45380000D01*
X48470000Y-49220000D02*
X48470000Y-45380000D01*
X48590000Y-49220000D02*
X48590000Y-45380000D01*
X39750000Y-47300000D02*
X42010000Y-47300000D01*
X52110000Y-47300000D02*
X49850000Y-47300000D01*
X42010000Y-49220000D02*
X49850000Y-49220000D01*
X42010000Y-45380000D02*
X42010000Y-49220000D01*
X49850000Y-45380000D02*
X42010000Y-45380000D01*
X49850000Y-49220000D02*
X49850000Y-45380000D01*
%TO.C,C6*%
X33261252Y-40265000D02*
X32738748Y-40265000D01*
X33261252Y-41735000D02*
X32738748Y-41735000D01*
%TO.C,C5*%
X28738748Y-41735000D02*
X29261252Y-41735000D01*
X28738748Y-40265000D02*
X29261252Y-40265000D01*
%TO.C,C4*%
X28865000Y-56288748D02*
X28865000Y-56811252D01*
X30335000Y-56288748D02*
X30335000Y-56811252D01*
%TO.C,C3*%
X37265000Y-55738748D02*
X37265000Y-56261252D01*
X38735000Y-55738748D02*
X38735000Y-56261252D01*
%TO.C,C1*%
X51838748Y-39735000D02*
X52361252Y-39735000D01*
X51838748Y-38265000D02*
X52361252Y-38265000D01*
%TD*%
M02*
