M48
; DRILL file {KiCad 5.99.0-unknown-34fb55dc9c~93~ubuntu20.04.1} date Sun Dec 20 23:20:02 2020
; FORMAT={-:-/ absolute / inch / decimal}
; #@! TF.CreationDate,2020-12-20T23:20:02+03:00
; #@! TF.GenerationSoftware,Kicad,Pcbnew,5.99.0-unknown-34fb55dc9c~93~ubuntu20.04.1
; #@! TF.FileFunction,Plated,1,2,PTH
FMAT,2
INCH
T1C0.0157
T2C0.0354
T3C0.0394
T4C0.0472
T5C0.0591
T6C0.0669
%
G90
G05
T1
X1.0236Y-2.3622
X1.1024Y-1.8504
X1.1654Y-2.2638
X1.1811Y-1.6142
X1.1811Y-1.7323
X1.1811Y-1.811
X1.2598Y-1.6142
X1.2598Y-2.126
X1.378Y-2.1654
X1.378Y-2.2441
X1.4961Y-2.2441
T2
X1.2598Y-2.4803
X1.3598Y-2.4803
T3
X0.9449Y-1.6535
X0.9449Y-1.7535
X0.9449Y-2.1047
X0.9449Y-2.2047
X1.0992Y-1.4567
X1.1992Y-1.4567
X1.2992Y-1.4567
X1.5354Y-1.4587
X1.5354Y-1.5587
X1.5354Y-2.4803
X1.6354Y-2.4803
X1.8504Y-2.4016
X2.0472Y-2.4016
T4
X1.5083Y-1.8622
X1.5118Y-2.0472
X2.1083Y-1.8622
X2.1118Y-2.0472
T5
X1.7898Y-1.5496
T6
X1.6898Y-1.4496
X1.6898Y-1.6496
X1.8898Y-1.4496
X1.8898Y-1.6496
T0
M30
